<?xml version="1.0" encoding="UTF-8" standalone="no"?>
<!DOCTYPE svg PUBLIC "-//W3C//DTD SVG 1.1//EN" "http://www.w3.org/Graphics/SVG/1.1/DTD/svg11.dtd">
<svg width="100%" height="100%" viewBox="0 0 1163 1156" version="1.1" xmlns="http://www.w3.org/2000/svg" xmlns:xlink="http://www.w3.org/1999/xlink" xml:space="preserve" xmlns:serif="http://www.serif.com/" style="fill-rule:evenodd;clip-rule:evenodd;stroke-linejoin:round;stroke-miterlimit:2;">
    <g transform="matrix(1,0,0,1,-7380.573484,0)">
        <g id="Favicon" transform="matrix(1.163,0,0,1.156,7380.573484,0)">
            <rect x="0" y="0" width="1000" height="1000" style="fill:none;"/>
            <clipPath id="_clip1">
                <rect x="0" y="0" width="1000" height="1000"/>
            </clipPath>
            <g clip-path="url(#_clip1)">
                <g transform="matrix(1.044656,0,0,1.044656,-33.106864,-13.74298)">
                    <g transform="matrix(1.93127,0,0,1.964948,28.372225,60.698362)">
                        <path d="M249.543,0.293C255.074,0.293 260.609,2.41 264.832,6.637C266.215,8.02 267.367,9.551 268.297,11.172L279.523,30.465L279.578,30.465L495.422,405.18C495.465,405.25 495.496,405.32 495.535,405.395C496.633,407.16 497.492,409.113 498.059,411.227C501.148,422.777 494.305,434.648 482.77,437.742C480.867,438.258 478.953,438.488 477.074,438.48L21.914,438.48C9.973,438.48 0.297,428.789 0.297,416.828C0.297,412.918 1.336,409.246 3.152,406.078C3.168,406.055 3.18,406.031 3.191,406.004L227.332,16.266C230.18,11.352 231.496,9.402 234.258,6.637C238.48,2.41 244.012,0.293 249.543,0.293Z" style="fill:rgb(254,254,254);fill-rule:nonzero;"/>
                        <path d="M249.543,5.719C254.789,5.68 260.555,8.367 263.375,13.395L491.145,408.648C492.461,411.34 493.012,413.68 493.027,416.355C493.027,421.148 490.91,425.695 487.25,428.777C484.023,431.281 480.965,432.582 476.852,432.582L21.812,432.582C19.035,432.609 16.254,431.941 13.727,430.273C8.977,427.398 6.066,422.246 6.062,416.684C6.195,413.809 6.902,410.781 8.18,408.648L235.82,13.328C235.84,13.293 235.863,13.258 235.887,13.227C235.91,13.191 235.93,13.156 235.953,13.117C236.762,11.824 237.777,10.68 238.93,9.699C241.574,7.406 244.883,6.031 248.375,5.781C248.766,5.746 249.156,5.723 249.543,5.719ZM476.828,432.582L477.973,432.582L476.828,432.582ZM249.781,84.059L76.203,385.379L423.602,385.379L249.781,84.059Z" style="fill:rgb(216,44,32);fill-rule:nonzero;"/>
                        <g id="path5540" transform="matrix(2.794413,0,0,-2.794413,-64.979011,1327.287402)">
                            <path d="M128.047,394.5C128.047,391.41 125.543,388.906 122.453,388.906C119.367,388.906 116.863,391.41 116.863,394.5C116.863,397.586 119.367,400.09 122.453,400.09C125.543,400.09 128.047,397.586 128.047,394.5Z" style="fill:rgb(26,26,26);fill-rule:nonzero;"/>
                        </g>
                        <g id="path5542" transform="matrix(2.794413,0,0,-2.794413,-64.979011,1327.287402)">
                            <path d="M91.176,342.66L90.098,367.242L83.262,361.727C81.766,361.844 80.188,361.848 79.379,362.906L90.059,373.34C92.48,372.66 94.773,372.86 96.934,373.961L104.609,372.399L108.324,364.727C107.176,364.508 106.563,363.434 104.008,365.445L102.09,369.281L98.973,369.403L101.73,358.367L108.926,357.531C110.84,357.297 110.961,355.582 111.445,354.172L99.813,354.051L97.773,356.93L94.414,355.969L94.535,344.938C93.531,343.375 92.355,343.004 91.176,342.66Z" style="fill:rgb(26,26,26);"/>
                        </g>
                        <g id="path5544" transform="matrix(2.794413,0,0,-2.794413,-64.979011,1327.287402)">
                            <path d="M101.863,377.332C103.371,377.801 118.637,387.227 118.637,387.227C122.199,385.231 125.199,386.692 128.152,388.449L137.668,385.434L142.66,375.637C140.703,374.602 138.785,374.863 136.914,376.578L134.371,381.664L129.094,383.457L130.414,371.207L134.652,360.938L144.168,356.789C146.535,354.133 145.648,352.809 145.395,351.043L131.355,356.695C130.621,356.836 130.348,357.668 129.941,358.297L125.512,368.664L120.801,345.672L115.527,342.848L120.047,369.039L118.824,381.477L107.047,374.977C104.004,374.504 102.906,375.891 101.863,377.332Z" style="fill:rgb(26,26,26);"/>
                        </g>
                        <g id="path5546" transform="matrix(2.794413,0,0,-2.794413,-64.979011,1327.287402)">
                            <path d="M97.828,379.856C97.828,377.137 95.625,374.93 92.902,374.93C90.184,374.93 87.977,377.137 87.977,379.856C87.977,382.574 90.184,384.781 92.902,384.781C95.625,384.781 97.828,382.574 97.828,379.856Z" style="fill:rgb(26,26,26);fill-rule:nonzero;"/>
                        </g>
                    </g>
                </g>
            </g>
        </g>
    </g>
</svg>
