<?xml version="1.0" encoding="UTF-8" standalone="no"?>
<!DOCTYPE svg PUBLIC "-//W3C//DTD SVG 1.1//EN" "http://www.w3.org/Graphics/SVG/1.1/DTD/svg11.dtd">
<svg width="100%" height="100%" viewBox="0 0 1163 1156" version="1.1" xmlns="http://www.w3.org/2000/svg" xmlns:xlink="http://www.w3.org/1999/xlink" xml:space="preserve" xmlns:serif="http://www.serif.com/" style="fill-rule:evenodd;clip-rule:evenodd;stroke-linecap:round;stroke-miterlimit:1.5;">
    <g transform="matrix(1,0,0,1,-6118.577451,-1324)">
        <g id="logo-mini" transform="matrix(1.163,0,0,1.156,6118.577451,1324)">
            <rect x="0" y="0" width="1000" height="1000" style="fill:none;"/>
            <g transform="matrix(1,0,0,1,-10.318143,8.217993)">
                <g transform="matrix(1.381596,0,0,1.389962,-147.32154,-289.376659)">
                    <circle cx="476" cy="562" r="309" style="fill:white;"/>
                    <path d="M476,253C646.542,253 785,391.458 785,562C785,732.542 646.542,871 476,871C305.458,871 167,732.542 167,562C167,391.458 305.458,253 476,253ZM476,278.932C319.77,278.932 192.932,405.77 192.932,562C192.932,718.23 319.77,845.068 476,845.068C632.23,845.068 759.068,718.23 759.068,562C759.068,405.77 632.23,278.932 476,278.932Z" style="fill:rgb(0,78,138);"/>
                </g>
                <g transform="matrix(1.182729,0,0,1.189891,334.091524,-283.212611)">
                    <path d="M149,587L149,805" style="fill:none;stroke:rgb(26,26,26);stroke-width:30.29px;"/>
                </g>
                <g transform="matrix(1.358619,0,0,1.366846,171.276539,-1.611541)">
                    <path d="M249.543,0.293C255.074,0.293 260.609,2.41 264.832,6.637C266.215,8.02 267.367,9.551 268.297,11.172L279.523,30.465L279.578,30.465L495.422,405.18C495.465,405.25 495.496,405.32 495.535,405.395C496.633,407.16 497.492,409.113 498.059,411.227C501.148,422.777 494.305,434.648 482.77,437.742C480.867,438.258 478.953,438.488 477.074,438.48L21.914,438.48C9.973,438.48 0.297,428.789 0.297,416.828C0.297,412.918 1.336,409.246 3.152,406.078C3.168,406.055 3.18,406.031 3.191,406.004L227.332,16.266C230.18,11.352 231.496,9.402 234.258,6.637C238.48,2.41 244.012,0.293 249.543,0.293Z" style="fill:rgb(254,254,254);fill-rule:nonzero;"/>
                    <path d="M249.543,5.719C254.789,5.68 260.555,8.367 263.375,13.395L491.145,408.648C492.461,411.34 493.012,413.68 493.027,416.355C493.027,421.148 490.91,425.695 487.25,428.777C484.023,431.281 480.965,432.582 476.852,432.582L21.812,432.582C19.035,432.609 16.254,431.941 13.727,430.273C8.977,427.398 6.066,422.246 6.062,416.684C6.195,413.809 6.902,410.781 8.18,408.648L235.82,13.328C235.84,13.293 235.863,13.258 235.887,13.227C235.91,13.191 235.93,13.156 235.953,13.117C236.762,11.824 237.777,10.68 238.93,9.699C241.574,7.406 244.883,6.031 248.375,5.781C248.766,5.746 249.156,5.723 249.543,5.719ZM476.828,432.582L477.973,432.582L476.828,432.582ZM249.781,84.059L76.203,385.379L423.602,385.379L249.781,84.059Z" style="fill:rgb(216,44,32);fill-rule:nonzero;"/>
                    <g id="path5540" transform="matrix(2.794413,0,0,-2.794413,-64.979011,1327.287402)">
                        <path d="M128.047,394.5C128.047,391.41 125.543,388.906 122.453,388.906C119.367,388.906 116.863,391.41 116.863,394.5C116.863,397.586 119.367,400.09 122.453,400.09C125.543,400.09 128.047,397.586 128.047,394.5Z" style="fill:rgb(26,26,26);fill-rule:nonzero;"/>
                    </g>
                    <g id="path5542" transform="matrix(2.794413,0,0,-2.794413,-64.979011,1327.287402)">
                        <path d="M91.176,342.66L90.098,367.242L83.262,361.727C81.766,361.844 80.188,361.848 79.379,362.906L90.059,373.34C92.48,372.66 94.773,372.86 96.934,373.961L104.609,372.399L108.324,364.727C107.176,364.508 106.563,363.434 104.008,365.445L102.09,369.281L98.973,369.403L101.73,358.367L108.926,357.531C110.84,357.297 110.961,355.582 111.445,354.172L99.813,354.051L97.773,356.93L94.414,355.969L94.535,344.938C93.531,343.375 92.355,343.004 91.176,342.66Z" style="fill:rgb(26,26,26);"/>
                    </g>
                    <g id="path5544" transform="matrix(2.794413,0,0,-2.794413,-64.979011,1327.287402)">
                        <path d="M101.863,377.332C103.371,377.801 118.637,387.227 118.637,387.227C122.199,385.231 125.199,386.692 128.152,388.449L137.668,385.434L142.66,375.637C140.703,374.602 138.785,374.863 136.914,376.578L134.371,381.664L129.094,383.457L130.414,371.207L134.652,360.938L144.168,356.789C146.535,354.133 145.648,352.809 145.395,351.043L131.355,356.695C130.621,356.836 130.348,357.668 129.941,358.297L125.512,368.664L120.801,345.672L115.527,342.848L120.047,369.039L118.824,381.477L107.047,374.977C104.004,374.504 102.906,375.891 101.863,377.332Z" style="fill:rgb(26,26,26);"/>
                    </g>
                    <g id="path5546" transform="matrix(2.794413,0,0,-2.794413,-64.979011,1327.287402)">
                        <path d="M97.828,379.856C97.828,377.137 95.625,374.93 92.902,374.93C90.184,374.93 87.977,377.137 87.977,379.856C87.977,382.574 90.184,384.781 92.902,384.781C95.625,384.781 97.828,382.574 97.828,379.856Z" style="fill:rgb(26,26,26);fill-rule:nonzero;"/>
                    </g>
                </g>
            </g>
            <g id="uuid-c2461cbb-b147-47b0-8eb9-6cb622eb3e95" transform="matrix(0.507956,0,0,0.511032,198.235981,504.807468)">
                <path id="uuid-aa6dc451-832c-4e1c-b279-966666bd7956" d="M1200,303.682L1200,896.319C1200,914.16 1185.516,928.644 1167.675,928.644L32.325,928.644C14.484,928.644 0,914.16 0,896.319L0,303.682C0,285.841 14.484,271.357 32.325,271.357L1167.675,271.357C1185.516,271.357 1200,285.841 1200,303.682Z" style="fill:white;"/>
                <path id="uuid-5edbfe13-84ee-41f0-ba28-b1903dc7c28a" d="M1122.613,288.442L77.387,288.442C44.083,288.442 17.086,315.44 17.086,348.744L17.086,851.257C17.086,884.561 44.084,911.559 77.387,911.559L1122.613,911.559C1155.916,911.559 1182.914,884.561 1182.914,851.258L1182.914,348.745C1182.914,315.441 1155.916,288.443 1122.613,288.443L1122.613,288.442ZM1152.764,851.256C1152.764,867.908 1139.265,881.407 1122.613,881.407L77.387,881.407C60.735,881.407 47.236,867.908 47.236,851.256L47.236,348.743C47.236,332.091 60.735,318.592 77.387,318.592L1122.613,318.592C1139.265,318.592 1152.764,332.091 1152.764,348.743L1152.764,851.256Z"/>
                <path id="uuid-9c75ed6c-c92d-41f7-998c-69c9fe68aa26" d="M167.151,677.853L187.752,653.53C204.002,667.293 224.606,674.846 245.901,674.846C253.257,674.846 260.586,673.944 267.723,672.159C280.243,669.029 289.027,657.78 289.027,644.874C289.027,630.768 278.578,618.844 264.595,616.992L230.524,612.479C200.693,608.528 178.403,583.09 178.403,552.999C178.403,522.654 201.059,497.086 231.183,493.435C236.067,492.843 240.983,492.546 245.902,492.546C270.678,492.546 294.871,500.069 315.277,514.121L297.2,540.375C282.111,529.985 264.223,524.422 245.902,524.422C242.264,524.422 238.629,524.641 235.018,525.08C220.897,526.792 210.277,538.776 210.277,553C210.277,567.106 220.726,579.03 234.709,580.882L268.78,585.395C298.612,589.346 320.902,614.784 320.902,644.876C320.902,672.408 302.164,696.407 275.454,703.084C265.789,705.501 255.864,706.723 245.902,706.723C217.063,706.723 189.159,696.494 167.152,677.854L167.151,677.853ZM470.329,682.375C457.505,697.817 438.474,706.75 418.401,706.75C381.121,706.75 350.901,676.529 350.901,639.25L350.901,620.5C350.901,583.22 381.122,553 418.401,553C438.473,553 457.505,561.933 470.329,577.375L447.25,596.542C440.125,587.963 429.552,583 418.401,583C397.69,583 380.901,599.79 380.901,620.501L380.901,639.251C380.901,659.962 397.69,676.752 418.401,676.752C429.552,676.752 440.125,671.788 447.25,663.21L470.329,682.377L470.329,682.375ZM500.329,704.875L500.329,494.876L530.329,494.876L530.329,571.806C539.94,559.912 554.412,553.001 569.703,553.001C597.663,553.001 620.328,575.666 620.328,603.626L620.328,704.876L590.328,704.876L590.328,613.002C590.328,596.433 576.897,583.002 560.328,583.002C543.759,583.002 530.328,596.434 530.328,613.002L530.328,704.876L500.328,704.876L500.329,704.875ZM781.58,704.875L751.579,704.875L751.579,687.945C741.968,699.839 727.495,706.75 712.205,706.75C684.245,706.75 661.58,684.085 661.58,656.125L661.58,554.875L691.58,554.875L691.58,646.75C691.58,663.319 705.012,676.75 721.58,676.75C738.148,676.75 751.58,663.318 751.58,646.75L751.58,554.875L781.58,554.875L781.58,704.875ZM879.079,704.875L860.329,704.875C841.69,704.875 826.579,689.765 826.579,671.125L826.579,494.875L856.579,494.875L856.579,667.375C856.579,672.553 860.776,676.75 865.954,676.75L879.079,676.75L879.079,704.875ZM1032.829,641.126L939.079,641.126L939.079,644.876C939.079,657.91 947.014,669.631 959.115,674.471C964.073,676.454 969.363,677.473 974.703,677.473C986.947,677.473 998.579,672.128 1006.553,662.837L1029.318,682.376C1015.645,698.307 995.697,707.473 974.703,707.473C965.547,707.473 956.475,705.725 947.974,702.325C924.482,692.928 909.079,670.176 909.079,644.875L909.079,614.875C909.079,580.703 936.781,553 970.954,553C1005.127,553 1032.829,580.702 1032.829,614.875L1032.829,641.126ZM939.079,614.876L1002.828,614.876C1002.828,597.272 988.557,583.001 970.954,583.001C953.351,583.001 939.079,597.272 939.079,614.876Z" style="fill-rule:nonzero;"/>
            </g>
        </g>
    </g>
</svg>
