<?xml version="1.0" encoding="UTF-8" standalone="no"?>
<!DOCTYPE svg PUBLIC "-//W3C//DTD SVG 1.1//EN" "http://www.w3.org/Graphics/SVG/1.1/DTD/svg11.dtd">
<svg width="100%" height="100%" viewBox="0 0 1163 1156" version="1.1" xmlns="http://www.w3.org/2000/svg" xmlns:xlink="http://www.w3.org/1999/xlink" xml:space="preserve" xmlns:serif="http://www.serif.com/" style="fill-rule:evenodd;clip-rule:evenodd;stroke-linecap:round;stroke-linejoin:round;stroke-miterlimit:1.5;">
    <g transform="matrix(1,0,0,1,-3449.356086,0)">
        <g id="Elterninitiative" transform="matrix(1.163,0,0,1.156,3449.356086,0)">
            <rect x="0" y="0" width="1000" height="1000" style="fill:none;"/>
            <g transform="matrix(1.332899,0,0,1.34097,-128.871043,-266.601158)">
                <circle cx="476" cy="562" r="309" style="fill:white;stroke:rgb(0,78,138);stroke-width:5.38px;"/>
            </g>
            <g transform="matrix(0.788515,0,0,0.79329,100.896463,86.905351)">
                <g transform="matrix(28.59064,-3.43519,3.43519,28.59064,-1607.445998,-1229.907885)">
                    <path d="M53.56,68.79C55.119,67.914 56.027,66.202 55.88,64.42L55.88,63.79L55.74,63.56C55.565,63.254 55.364,62.963 55.14,62.69L57.78,61.52C59.78,61.52 62.49,63.67 63.59,65.76C65.185,68.377 65.303,71.645 63.9,74.37C63.622,74.884 63.219,75.32 62.73,75.64C56.85,79.05 52.85,74.98 53.56,68.79Z" style="fill:rgb(234,244,251);fill-rule:nonzero;stroke:rgb(0,78,138);stroke-width:0.16px;stroke-linecap:butt;stroke-miterlimit:2;"/>
                </g>
                <g transform="matrix(28.59064,-3.43519,3.43519,28.59064,-1607.445998,-1229.907885)">
                    <path d="M60.15,60.19L65.46,57.53C65.36,58.53 69.46,60.93 70.75,61.08L70.93,61.08C71.99,66.62 75.8,70.59 80.45,73.08C78,77.25 72.05,72.37 66.17,74.08C67.273,71.053 66.965,67.686 65.33,64.91C64.2,62.8 62.367,61.151 60.15,60.25L60.15,60.19Z" style="fill:rgb(234,244,251);fill-rule:nonzero;stroke:rgb(0,78,138);stroke-width:0.16px;stroke-linecap:butt;stroke-miterlimit:2;"/>
                </g>
            </g>
            <g transform="matrix(0.859845,0,0,0.865052,43.852107,-51.903114)">
                <g transform="matrix(0.591187,-0.806535,0.806535,0.591187,-250.817527,354.053249)">
                    <g transform="matrix(83.333333,0,0,83.333333,223.841502,424.441634)">
                        <path d="M0.501,-0L0.09,-0L0.09,-0.714L0.501,-0.714L0.501,-0.59L0.241,-0.59L0.241,-0.433L0.483,-0.433L0.483,-0.309L0.241,-0.309L0.241,-0.125L0.501,-0.125L0.501,-0Z" style="fill:rgb(0,78,138);fill-rule:nonzero;"/>
                    </g>
                </g>
                <g transform="matrix(0.689794,-0.724006,0.724006,0.689794,-201.948276,301.85706)">
                    <g transform="matrix(83.333333,0,0,83.333333,251.285455,386.597087)">
                        <path d="M0.09,-0L0.09,-0.714L0.241,-0.714L0.241,-0.125L0.531,-0.125L0.531,-0L0.09,-0Z" style="fill:rgb(0,78,138);fill-rule:nonzero;"/>
                    </g>
                </g>
                <g transform="matrix(0.772637,-0.634848,0.634848,0.772637,-159.16805,260.212957)">
                    <g transform="matrix(83.333333,0,0,83.333333,283.702452,352.322931)">
                        <path d="M0.365,-0L0.214,-0L0.214,-0.588L0.02,-0.588L0.02,-0.714L0.559,-0.714L0.559,-0.588L0.365,-0.588L0.365,-0Z" style="fill:rgb(0,78,138);fill-rule:nonzero;"/>
                    </g>
                </g>
                <g transform="matrix(0.848982,-0.528422,0.528422,0.848982,-121.494847,218.18621)">
                    <g transform="matrix(83.333333,0,0,83.333333,320.976476,321.652307)">
                        <path d="M0.501,-0L0.09,-0L0.09,-0.714L0.501,-0.714L0.501,-0.59L0.241,-0.59L0.241,-0.433L0.483,-0.433L0.483,-0.309L0.241,-0.309L0.241,-0.125L0.501,-0.125L0.501,-0Z" style="fill:rgb(0,78,138);fill-rule:nonzero;"/>
                    </g>
                </g>
                <g transform="matrix(0.916217,-0.400683,0.400683,0.916217,-88.543672,169.233697)">
                    <g transform="matrix(83.333333,0,0,83.333333,360.397684,296.34138)">
                        <path d="M0.298,-0.714C0.363,-0.714 0.416,-0.706 0.458,-0.69C0.5,-0.675 0.532,-0.651 0.552,-0.62C0.573,-0.588 0.583,-0.548 0.583,-0.5C0.583,-0.467 0.577,-0.439 0.564,-0.415C0.552,-0.39 0.536,-0.369 0.516,-0.353C0.495,-0.336 0.474,-0.322 0.45,-0.311L0.66,-0L0.492,-0L0.322,-0.274L0.241,-0.274L0.241,-0L0.09,-0L0.09,-0.714L0.298,-0.714ZM0.287,-0.59L0.241,-0.59L0.241,-0.397L0.29,-0.397C0.34,-0.397 0.376,-0.405 0.398,-0.422C0.419,-0.439 0.43,-0.464 0.43,-0.496C0.43,-0.53 0.419,-0.554 0.395,-0.568C0.372,-0.583 0.336,-0.59 0.287,-0.59Z" style="fill:rgb(0,78,138);fill-rule:nonzero;"/>
                    </g>
                </g>
                <g transform="matrix(0.967617,-0.252423,0.252423,0.967617,-55.736992,112.524897)">
                    <g transform="matrix(83.333333,0,0,83.333333,410.692036,273.494774)">
                        <path d="M0.723,-0L0.531,-0L0.22,-0.54L0.216,-0.54C0.217,-0.518 0.218,-0.495 0.219,-0.472C0.22,-0.449 0.224,-0.359 0.225,-0.336L0.225,-0L0.09,-0L0.09,-0.714L0.281,-0.714L0.591,-0.179L0.594,-0.179C0.594,-0.201 0.593,-0.223 0.592,-0.245C0.591,-0.267 0.59,-0.289 0.589,-0.311C0.588,-0.332 0.588,-0.354 0.587,-0.376L0.587,-0.714L0.723,-0.714L0.723,-0Z" style="fill:rgb(0,78,138);fill-rule:nonzero;"/>
                    </g>
                </g>
                <g transform="matrix(0.992097,-0.125473,0.125473,0.992097,-28.564713,61.825179)">
                    <g transform="matrix(83.333333,0,0,83.333333,476.507099,257.669068)">
                        <rect x="0.09" y="-0.714" width="0.151" height="0.714" style="fill:rgb(0,78,138);fill-rule:nonzero;"/>
                    </g>
                </g>
                <g transform="matrix(0.999998,0.001982,-0.001982,0.999998,0.502327,-0.998226)">
                    <g transform="matrix(83.333333,0,0,83.333333,503.873217,252.933599)">
                        <path d="M0.723,-0L0.531,-0L0.22,-0.54L0.216,-0.54C0.217,-0.518 0.218,-0.495 0.219,-0.472C0.22,-0.449 0.224,-0.359 0.225,-0.336L0.225,-0L0.09,-0L0.09,-0.714L0.281,-0.714L0.591,-0.179L0.594,-0.179C0.594,-0.201 0.593,-0.223 0.592,-0.245C0.591,-0.267 0.59,-0.289 0.589,-0.311C0.588,-0.332 0.588,-0.354 0.587,-0.376L0.587,-0.714L0.723,-0.714L0.723,-0Z" style="fill:rgb(0,78,138);fill-rule:nonzero;"/>
                    </g>
                </g>
                <g transform="matrix(0.991595,0.129383,-0.129383,0.991595,37.711535,-71.814489)">
                    <g transform="matrix(83.333333,0,0,83.333333,571.575456,254.339303)">
                        <rect x="0.09" y="-0.714" width="0.151" height="0.714" style="fill:rgb(0,78,138);fill-rule:nonzero;"/>
                    </g>
                </g>
                <g transform="matrix(0.973079,0.230473,-0.230473,0.973079,75.444274,-131.122683)">
                    <g transform="matrix(83.333333,0,0,83.333333,598.992822,257.377897)">
                        <path d="M0.365,-0L0.214,-0L0.214,-0.588L0.02,-0.588L0.02,-0.714L0.559,-0.714L0.559,-0.588L0.365,-0.588L0.365,-0Z" style="fill:rgb(0,78,138);fill-rule:nonzero;"/>
                    </g>
                </g>
                <g transform="matrix(0.94401,0.329916,-0.329916,0.94401,124.932232,-198.043429)">
                    <g transform="matrix(83.333333,0,0,83.333333,645.945166,269.055835)">
                        <rect x="0.09" y="-0.714" width="0.151" height="0.714" style="fill:rgb(0,78,138);fill-rule:nonzero;"/>
                    </g>
                </g>
                <g transform="matrix(0.899772,0.43636,-0.43636,0.899772,188.393919,-265.543416)">
                    <g transform="matrix(83.333333,0,0,83.333333,672.242106,277.331438)">
                        <path d="M0.527,-0L0.475,-0.17L0.215,-0.17L0.163,-0L0,-0L0.252,-0.717L0.437,-0.717L0.69,-0L0.527,-0ZM0.439,-0.297L0.387,-0.463C0.384,-0.474 0.364,-0.541 0.358,-0.559C0.353,-0.577 0.348,-0.593 0.345,-0.606C0.342,-0.593 0.337,-0.576 0.332,-0.556C0.326,-0.537 0.321,-0.518 0.315,-0.5C0.31,-0.483 0.306,-0.47 0.304,-0.463L0.253,-0.297L0.439,-0.297Z" style="fill:rgb(0,78,138);fill-rule:nonzero;"/>
                    </g>
                </g>
                <g transform="matrix(0.828321,0.560254,-0.560254,0.828321,293.921869,-353.607536)">
                    <g transform="matrix(83.333333,0,0,83.333333,723.938979,302.785742)">
                        <path d="M0.365,-0L0.214,-0L0.214,-0.588L0.02,-0.588L0.02,-0.714L0.559,-0.714L0.559,-0.588L0.365,-0.588L0.365,-0Z" style="fill:rgb(0,78,138);fill-rule:nonzero;"/>
                    </g>
                </g>
                <g transform="matrix(0.766924,0.641738,-0.641738,0.766924,389.938884,-413.076832)">
                    <g transform="matrix(83.333333,0,0,83.333333,763.640788,330.279564)">
                        <rect x="0.09" y="-0.714" width="0.151" height="0.714" style="fill:rgb(0,78,138);fill-rule:nonzero;"/>
                    </g>
                </g>
                <g transform="matrix(0.692215,0.721691,-0.721691,0.692215,492.431017,-459.78867)">
                    <g transform="matrix(83.333333,0,0,83.333333,785.269901,347.429814)">
                        <path d="M0.65,-0.714L0.407,-0L0.242,-0L0,-0.714L0.153,-0.714L0.287,-0.289C0.289,-0.282 0.293,-0.268 0.298,-0.249C0.304,-0.229 0.309,-0.208 0.314,-0.186C0.32,-0.164 0.323,-0.146 0.325,-0.132C0.327,-0.146 0.331,-0.164 0.336,-0.186C0.341,-0.208 0.346,-0.229 0.351,-0.248C0.356,-0.268 0.36,-0.282 0.362,-0.289L0.497,-0.714L0.65,-0.714Z" style="fill:rgb(0,78,138);fill-rule:nonzero;"/>
                    </g>
                </g>
                <g transform="matrix(0.585437,0.810718,-0.810718,0.585437,654.637823,-506.677292)">
                    <g transform="matrix(83.333333,0,0,83.333333,822.747316,386.765375)">
                        <path d="M0.501,-0L0.09,-0L0.09,-0.714L0.501,-0.714L0.501,-0.59L0.241,-0.59L0.241,-0.433L0.483,-0.433L0.483,-0.309L0.241,-0.309L0.241,-0.125L0.501,-0.125L0.501,-0Z" style="fill:rgb(0,78,138);fill-rule:nonzero;"/>
                    </g>
                </g>
            </g>
            <g transform="matrix(0.859845,0,0,0.865052,-12.467756,-108.564014)">
                <g transform="matrix(-0.120777,0.99268,-0.99268,-0.120777,806.840574,521.598595)">
                    <g transform="matrix(83.333333,0,0,83.333333,172.428582,618.11138)">
                        <path d="M0.408,-0.209C0.408,-0.166 0.4,-0.128 0.382,-0.095C0.365,-0.062 0.341,-0.037 0.309,-0.018C0.278,0 0.241,0.01 0.198,0.01C0.178,0.01 0.159,0.009 0.141,0.006C0.122,0.004 0.104,-0 0.086,-0.006C0.068,-0.012 0.05,-0.019 0.032,-0.029L0.032,-0.169C0.058,-0.152 0.085,-0.139 0.113,-0.13C0.141,-0.122 0.167,-0.117 0.191,-0.117C0.208,-0.117 0.223,-0.121 0.235,-0.127C0.246,-0.134 0.255,-0.144 0.26,-0.155C0.266,-0.167 0.269,-0.18 0.269,-0.195C0.269,-0.21 0.267,-0.224 0.262,-0.236C0.257,-0.248 0.247,-0.26 0.234,-0.272C0.22,-0.284 0.2,-0.297 0.173,-0.313C0.152,-0.325 0.133,-0.338 0.116,-0.351C0.1,-0.364 0.085,-0.378 0.073,-0.394C0.062,-0.41 0.053,-0.428 0.046,-0.449C0.04,-0.47 0.037,-0.495 0.037,-0.523C0.037,-0.563 0.045,-0.599 0.061,-0.629C0.077,-0.659 0.1,-0.683 0.131,-0.699C0.161,-0.716 0.198,-0.724 0.24,-0.724C0.269,-0.724 0.298,-0.72 0.325,-0.712C0.353,-0.705 0.38,-0.694 0.406,-0.679L0.368,-0.558C0.345,-0.572 0.323,-0.582 0.303,-0.589C0.282,-0.596 0.263,-0.599 0.245,-0.599C0.229,-0.599 0.216,-0.596 0.206,-0.59C0.195,-0.584 0.187,-0.576 0.182,-0.565C0.177,-0.555 0.174,-0.543 0.174,-0.53C0.174,-0.513 0.176,-0.499 0.182,-0.487C0.187,-0.475 0.197,-0.464 0.211,-0.452C0.226,-0.441 0.247,-0.428 0.274,-0.412C0.304,-0.395 0.328,-0.377 0.348,-0.357C0.368,-0.338 0.383,-0.316 0.393,-0.292C0.403,-0.268 0.408,-0.241 0.408,-0.209Z" style="fill:rgb(46,158,72);fill-rule:nonzero;"/>
                    </g>
                </g>
                <g transform="matrix(-0.054649,0.998506,-0.998506,-0.054649,830.761101,522.022502)">
                    <g transform="matrix(83.333333,0,0,83.333333,168.264027,654.279346)">
                        <rect x="0.064" y="-0.714" width="0.137" height="0.714" style="fill:rgb(46,158,72);fill-rule:nonzero;"/>
                    </g>
                </g>
                <g transform="matrix(0.01744,0.999848,-0.999848,0.01744,840.028991,497.863788)">
                    <g transform="matrix(83.333333,0,0,83.333333,166.702777,676.336322)">
                        <path d="M0.309,-0.606C0.288,-0.606 0.27,-0.6 0.254,-0.587C0.239,-0.575 0.226,-0.558 0.216,-0.535C0.205,-0.512 0.198,-0.486 0.193,-0.455C0.188,-0.424 0.185,-0.391 0.185,-0.355C0.185,-0.302 0.19,-0.257 0.2,-0.22C0.21,-0.184 0.225,-0.156 0.245,-0.137C0.264,-0.118 0.288,-0.109 0.316,-0.109C0.338,-0.109 0.359,-0.113 0.379,-0.12C0.399,-0.128 0.418,-0.137 0.438,-0.147L0.438,-0.025C0.417,-0.014 0.395,-0.005 0.372,0.001C0.348,0.007 0.323,0.01 0.296,0.01C0.242,0.01 0.197,-0.004 0.159,-0.033C0.121,-0.061 0.093,-0.103 0.073,-0.157C0.053,-0.212 0.043,-0.278 0.043,-0.356C0.043,-0.409 0.049,-0.458 0.06,-0.503C0.071,-0.548 0.088,-0.587 0.109,-0.62C0.131,-0.653 0.158,-0.679 0.19,-0.697C0.221,-0.715 0.258,-0.724 0.299,-0.724C0.327,-0.724 0.355,-0.721 0.382,-0.713C0.409,-0.706 0.434,-0.695 0.459,-0.68L0.42,-0.567C0.402,-0.579 0.385,-0.588 0.367,-0.595C0.349,-0.602 0.33,-0.606 0.309,-0.606Z" style="fill:rgb(46,158,72);fill-rule:nonzero;"/>
                    </g>
                </g>
                <g transform="matrix(0.116076,0.99324,-0.99324,0.116076,859.571798,467.430469)">
                    <g transform="matrix(83.333333,0,0,83.333333,167.166615,716.65365)">
                        <path d="M0.515,-0L0.378,-0L0.378,-0.312L0.201,-0.312L0.201,-0L0.064,-0L0.064,-0.714L0.201,-0.714L0.201,-0.431L0.378,-0.431L0.378,-0.714L0.515,-0.714L0.515,-0Z" style="fill:rgb(46,158,72);fill-rule:nonzero;"/>
                    </g>
                </g>
                <g transform="matrix(0.213324,0.976982,-0.976982,0.213324,883.166711,432.458982)">
                    <g transform="matrix(83.333333,0,0,83.333333,173.045656,764.636546)">
                        <path d="M0.385,-0L0.064,-0L0.064,-0.714L0.385,-0.714L0.385,-0.597L0.201,-0.597L0.201,-0.429L0.372,-0.429L0.372,-0.312L0.201,-0.312L0.201,-0.119L0.385,-0.119L0.385,-0Z" style="fill:rgb(46,158,72);fill-rule:nonzero;"/>
                    </g>
                </g>
                <g transform="matrix(0.30426,0.952589,-0.952589,0.30426,887.059765,384.476314)">
                    <g transform="matrix(83.333333,0,0,83.333333,180.322503,799.507493)">
                        <path d="M0.23,-0.714C0.283,-0.714 0.326,-0.706 0.361,-0.691C0.396,-0.676 0.422,-0.653 0.439,-0.622C0.456,-0.591 0.465,-0.553 0.465,-0.507C0.465,-0.478 0.461,-0.451 0.454,-0.427C0.447,-0.403 0.436,-0.382 0.421,-0.363C0.406,-0.344 0.386,-0.328 0.363,-0.314L0.51,-0L0.359,-0L0.242,-0.28L0.201,-0.28L0.201,-0L0.064,-0L0.064,-0.714L0.23,-0.714ZM0.229,-0.598L0.201,-0.598L0.201,-0.388L0.232,-0.388C0.263,-0.388 0.286,-0.397 0.302,-0.416C0.317,-0.435 0.325,-0.463 0.325,-0.5C0.325,-0.534 0.317,-0.558 0.302,-0.574C0.286,-0.59 0.262,-0.598 0.229,-0.598Z" style="fill:rgb(46,158,72);fill-rule:nonzero;"/>
                    </g>
                </g>
                <g transform="matrix(0.385199,0.922834,-0.922834,0.385199,894.097563,338.118756)">
                    <g transform="matrix(83.333333,0,0,83.333333,193.285981,840.091958)">
                        <path d="M0.385,-0L0.064,-0L0.064,-0.714L0.385,-0.714L0.385,-0.597L0.201,-0.597L0.201,-0.429L0.372,-0.429L0.372,-0.312L0.201,-0.312L0.201,-0.119L0.385,-0.119L0.385,-0Z" style="fill:rgb(46,158,72);fill-rule:nonzero;"/>
                    </g>
                </g>
                <g transform="matrix(0.489135,0.872208,-0.872208,0.489135,882.329477,266.658541)">
                    <g transform="matrix(83.333333,0,0,83.333333,213.529421,886.537288)">
                        <path d="M0.408,-0.209C0.408,-0.166 0.4,-0.128 0.382,-0.095C0.365,-0.062 0.341,-0.037 0.309,-0.018C0.278,0 0.241,0.01 0.198,0.01C0.178,0.01 0.159,0.009 0.141,0.006C0.122,0.004 0.104,-0 0.086,-0.006C0.068,-0.012 0.05,-0.019 0.032,-0.029L0.032,-0.169C0.058,-0.152 0.085,-0.139 0.113,-0.13C0.141,-0.122 0.167,-0.117 0.191,-0.117C0.208,-0.117 0.223,-0.121 0.235,-0.127C0.246,-0.134 0.255,-0.144 0.26,-0.155C0.266,-0.167 0.269,-0.18 0.269,-0.195C0.269,-0.21 0.267,-0.224 0.262,-0.236C0.257,-0.248 0.247,-0.26 0.234,-0.272C0.22,-0.284 0.2,-0.297 0.173,-0.313C0.152,-0.325 0.133,-0.338 0.116,-0.351C0.1,-0.364 0.085,-0.378 0.073,-0.394C0.062,-0.41 0.053,-0.428 0.046,-0.449C0.04,-0.47 0.037,-0.495 0.037,-0.523C0.037,-0.563 0.045,-0.599 0.061,-0.629C0.077,-0.659 0.1,-0.683 0.131,-0.699C0.161,-0.716 0.198,-0.724 0.24,-0.724C0.269,-0.724 0.298,-0.72 0.325,-0.712C0.353,-0.705 0.38,-0.694 0.406,-0.679L0.368,-0.558C0.345,-0.572 0.323,-0.582 0.303,-0.589C0.282,-0.596 0.263,-0.599 0.245,-0.599C0.229,-0.599 0.216,-0.596 0.206,-0.59C0.195,-0.584 0.187,-0.576 0.182,-0.565C0.177,-0.555 0.174,-0.543 0.174,-0.53C0.174,-0.513 0.176,-0.499 0.182,-0.487C0.187,-0.475 0.197,-0.464 0.211,-0.452C0.226,-0.441 0.247,-0.428 0.274,-0.412C0.304,-0.395 0.328,-0.377 0.348,-0.357C0.368,-0.338 0.383,-0.316 0.393,-0.292C0.403,-0.268 0.408,-0.241 0.408,-0.209Z" style="fill:rgb(46,158,72);fill-rule:nonzero;"/>
                    </g>
                </g>
                <g transform="matrix(0.564905,0.825156,-0.825156,0.564905,858.436033,208.769383)">
                    <g transform="matrix(83.333333,0,0,83.333333,231.252847,918.395022)">
                        <path d="M0.309,-0.606C0.288,-0.606 0.27,-0.6 0.254,-0.587C0.239,-0.575 0.226,-0.558 0.216,-0.535C0.205,-0.512 0.198,-0.486 0.193,-0.455C0.188,-0.424 0.185,-0.391 0.185,-0.355C0.185,-0.302 0.19,-0.257 0.2,-0.22C0.21,-0.184 0.225,-0.156 0.245,-0.137C0.264,-0.118 0.288,-0.109 0.316,-0.109C0.338,-0.109 0.359,-0.113 0.379,-0.12C0.399,-0.128 0.418,-0.137 0.438,-0.147L0.438,-0.025C0.417,-0.014 0.395,-0.005 0.372,0.001C0.348,0.007 0.323,0.01 0.296,0.01C0.242,0.01 0.197,-0.004 0.159,-0.033C0.121,-0.061 0.093,-0.103 0.073,-0.157C0.053,-0.212 0.043,-0.278 0.043,-0.356C0.043,-0.409 0.049,-0.458 0.06,-0.503C0.071,-0.548 0.088,-0.587 0.109,-0.62C0.131,-0.653 0.158,-0.679 0.19,-0.697C0.221,-0.715 0.258,-0.724 0.299,-0.724C0.327,-0.724 0.355,-0.721 0.382,-0.713C0.409,-0.706 0.434,-0.695 0.459,-0.68L0.42,-0.567C0.402,-0.579 0.385,-0.588 0.367,-0.595C0.349,-0.602 0.33,-0.606 0.309,-0.606Z" style="fill:rgb(46,158,72);fill-rule:nonzero;"/>
                    </g>
                </g>
                <g transform="matrix(0.643737,0.765247,-0.765247,0.643737,818.763294,144.84802)">
                    <g transform="matrix(83.333333,0,0,83.333333,253.816132,951.768675)">
                        <path d="M0.515,-0L0.378,-0L0.378,-0.312L0.201,-0.312L0.201,-0L0.064,-0L0.064,-0.714L0.201,-0.714L0.201,-0.431L0.378,-0.431L0.378,-0.714L0.515,-0.714L0.515,-0Z" style="fill:rgb(46,158,72);fill-rule:nonzero;"/>
                    </g>
                </g>
                <g transform="matrix(0.722464,0.691409,-0.691409,0.722464,762.632516,77.409547)">
                    <g transform="matrix(83.333333,0,0,83.333333,284.893495,988.653932)">
                        <path d="M0.502,-0.714L0.502,-0.235C0.502,-0.18 0.493,-0.135 0.477,-0.099C0.46,-0.062 0.435,-0.035 0.402,-0.017C0.369,0.001 0.328,0.01 0.28,0.01C0.209,0.01 0.155,-0.01 0.117,-0.05C0.079,-0.09 0.06,-0.151 0.06,-0.232L0.06,-0.714L0.197,-0.714L0.197,-0.237C0.197,-0.192 0.204,-0.159 0.218,-0.14C0.233,-0.121 0.253,-0.111 0.281,-0.111C0.3,-0.111 0.316,-0.115 0.328,-0.123C0.341,-0.132 0.35,-0.145 0.357,-0.164C0.363,-0.182 0.366,-0.207 0.366,-0.238L0.366,-0.714L0.502,-0.714Z" style="fill:rgb(46,158,72);fill-rule:nonzero;"/>
                    </g>
                </g>
                <g transform="matrix(0.785735,0.618564,-0.618564,0.785735,699.837501,21.473737)">
                    <g transform="matrix(83.333333,0,0,83.333333,318.922427,1020.919194)">
                        <path d="M0.064,-0L0.064,-0.714L0.201,-0.714L0.201,-0.119L0.391,-0.119L0.391,-0L0.064,-0Z" style="fill:rgb(46,158,72);fill-rule:nonzero;"/>
                    </g>
                </g>
                <g transform="matrix(0.847587,0.530656,-0.530656,0.847587,605.862346,-24.164553)">
                    <g transform="matrix(83.333333,0,0,83.333333,344.99805,1042.633556)">
                        <path d="M0.773,-0.714L0.633,-0L0.476,-0L0.41,-0.34C0.408,-0.352 0.406,-0.364 0.404,-0.377C0.402,-0.391 0.4,-0.405 0.398,-0.419C0.396,-0.434 0.394,-0.449 0.392,-0.465C0.39,-0.481 0.389,-0.497 0.387,-0.514C0.386,-0.501 0.384,-0.488 0.383,-0.473C0.381,-0.459 0.379,-0.444 0.377,-0.429C0.375,-0.414 0.373,-0.399 0.371,-0.384C0.369,-0.369 0.366,-0.354 0.364,-0.341L0.298,-0L0.142,-0L0.001,-0.714L0.135,-0.714L0.2,-0.353C0.203,-0.339 0.205,-0.323 0.208,-0.307C0.21,-0.29 0.213,-0.274 0.215,-0.256C0.218,-0.239 0.22,-0.222 0.222,-0.206C0.224,-0.189 0.226,-0.174 0.227,-0.159C0.229,-0.176 0.231,-0.193 0.234,-0.21C0.236,-0.228 0.239,-0.245 0.241,-0.262C0.244,-0.279 0.247,-0.295 0.25,-0.31C0.252,-0.325 0.255,-0.339 0.257,-0.351L0.33,-0.714L0.445,-0.714L0.513,-0.352C0.516,-0.339 0.518,-0.325 0.521,-0.309C0.524,-0.294 0.527,-0.278 0.529,-0.261C0.532,-0.244 0.534,-0.227 0.537,-0.21C0.539,-0.193 0.541,-0.176 0.543,-0.159C0.545,-0.179 0.547,-0.2 0.55,-0.222C0.553,-0.244 0.556,-0.266 0.559,-0.289C0.563,-0.311 0.566,-0.333 0.57,-0.353L0.636,-0.714L0.773,-0.714Z" style="fill:rgb(46,158,72);fill-rule:nonzero;"/>
                    </g>
                </g>
                <g transform="matrix(0.903722,0.42812,-0.42812,0.903722,499.269458,-67.684393)">
                    <g transform="matrix(83.333333,0,0,83.333333,400.120894,1076.209075)">
                        <path d="M0.385,-0L0.064,-0L0.064,-0.714L0.385,-0.714L0.385,-0.597L0.201,-0.597L0.201,-0.429L0.372,-0.429L0.372,-0.312L0.201,-0.312L0.201,-0.119L0.385,-0.119L0.385,-0Z" style="fill:rgb(46,158,72);fill-rule:nonzero;"/>
                    </g>
                </g>
                <g transform="matrix(0.939736,0.3419,-0.3419,0.939736,399.328425,-81.996225)">
                    <g transform="matrix(83.333333,0,0,83.333333,432.26286,1091.776612)">
                        <path d="M0.3,-0.402L0.523,-0.402L0.523,-0.03C0.489,-0.016 0.454,-0.007 0.419,-0C0.383,0.007 0.347,0.01 0.31,0.01C0.251,0.01 0.202,-0.005 0.162,-0.035C0.123,-0.066 0.093,-0.108 0.073,-0.163C0.053,-0.218 0.043,-0.283 0.043,-0.359C0.043,-0.433 0.054,-0.498 0.077,-0.552C0.1,-0.607 0.133,-0.649 0.176,-0.679C0.22,-0.709 0.273,-0.724 0.336,-0.724C0.37,-0.724 0.403,-0.72 0.433,-0.712C0.463,-0.703 0.489,-0.693 0.513,-0.679L0.473,-0.566C0.453,-0.579 0.431,-0.589 0.409,-0.596C0.387,-0.603 0.365,-0.606 0.341,-0.606C0.307,-0.606 0.278,-0.596 0.255,-0.577C0.232,-0.558 0.214,-0.529 0.203,-0.492C0.191,-0.455 0.185,-0.409 0.185,-0.355C0.185,-0.305 0.19,-0.262 0.199,-0.225C0.209,-0.188 0.224,-0.159 0.243,-0.139C0.263,-0.119 0.288,-0.109 0.319,-0.109C0.332,-0.109 0.344,-0.11 0.356,-0.112C0.368,-0.114 0.379,-0.117 0.389,-0.12L0.389,-0.286L0.3,-0.286L0.3,-0.402Z" style="fill:rgb(46,158,72);fill-rule:nonzero;"/>
                    </g>
                </g>
                <g transform="matrix(0.968979,0.247141,-0.247141,0.968979,288.609602,-83.600817)">
                    <g transform="matrix(83.333333,0,0,83.333333,477.329368,1107.878394)">
                        <path d="M0.385,-0L0.064,-0L0.064,-0.714L0.385,-0.714L0.385,-0.597L0.201,-0.597L0.201,-0.429L0.372,-0.429L0.372,-0.312L0.201,-0.312L0.201,-0.119L0.385,-0.119L0.385,-0Z" style="fill:rgb(46,158,72);fill-rule:nonzero;"/>
                    </g>
                </g>
                <g transform="matrix(0.994749,0.102344,-0.102344,0.994749,117.42844,-47.980767)">
                    <g transform="matrix(83.333333,0,0,83.333333,526.303904,1120.391633)">
                        <path d="M0.773,-0.714L0.633,-0L0.476,-0L0.41,-0.34C0.408,-0.352 0.406,-0.364 0.404,-0.377C0.402,-0.391 0.4,-0.405 0.398,-0.419C0.396,-0.434 0.394,-0.449 0.392,-0.465C0.39,-0.481 0.389,-0.497 0.387,-0.514C0.386,-0.501 0.384,-0.488 0.383,-0.473C0.381,-0.459 0.379,-0.444 0.377,-0.429C0.375,-0.414 0.373,-0.399 0.371,-0.384C0.369,-0.369 0.366,-0.354 0.364,-0.341L0.298,-0L0.142,-0L0.001,-0.714L0.135,-0.714L0.2,-0.353C0.203,-0.339 0.205,-0.323 0.208,-0.307C0.21,-0.29 0.213,-0.274 0.215,-0.256C0.218,-0.239 0.22,-0.222 0.222,-0.206C0.224,-0.189 0.226,-0.174 0.227,-0.159C0.229,-0.176 0.231,-0.193 0.234,-0.21C0.236,-0.228 0.239,-0.245 0.241,-0.262C0.244,-0.279 0.247,-0.295 0.25,-0.31C0.252,-0.325 0.255,-0.339 0.257,-0.351L0.33,-0.714L0.445,-0.714L0.513,-0.352C0.516,-0.339 0.518,-0.325 0.521,-0.309C0.524,-0.294 0.527,-0.278 0.529,-0.261C0.532,-0.244 0.534,-0.227 0.537,-0.21C0.539,-0.193 0.541,-0.176 0.543,-0.159C0.545,-0.179 0.547,-0.2 0.55,-0.222C0.553,-0.244 0.556,-0.266 0.559,-0.289C0.563,-0.311 0.566,-0.333 0.57,-0.353L0.636,-0.714L0.773,-0.714Z" style="fill:rgb(46,158,72);fill-rule:nonzero;"/>
                    </g>
                </g>
                <g transform="matrix(0.999992,0.003964,-0.003964,0.999992,4.468066,-2.332722)">
                    <g transform="matrix(83.333333,0,0,83.333333,590.689052,1125.952712)">
                        <rect x="0.064" y="-0.714" width="0.137" height="0.714" style="fill:rgb(46,158,72);fill-rule:nonzero;"/>
                    </g>
                </g>
                <g transform="matrix(0.997967,-0.063737,0.063737,0.997967,-70.541277,41.345647)">
                    <g transform="matrix(83.333333,0,0,83.333333,612.765967,1126.311109)">
                        <path d="M0.064,-0L0.064,-0.714L0.201,-0.714L0.201,-0.119L0.391,-0.119L0.391,-0L0.064,-0Z" style="fill:rgb(46,158,72);fill-rule:nonzero;"/>
                    </g>
                </g>
                <g transform="matrix(0.988321,-0.152386,0.152386,0.988321,-163.816875,111.666476)">
                    <g transform="matrix(83.333333,0,0,83.333333,646.597617,1124.565678)">
                        <path d="M0.515,-0L0.378,-0L0.378,-0.312L0.201,-0.312L0.201,-0L0.064,-0L0.064,-0.714L0.201,-0.714L0.201,-0.431L0.378,-0.431L0.378,-0.714L0.515,-0.714L0.515,-0Z" style="fill:rgb(46,158,72);fill-rule:nonzero;"/>
                    </g>
                </g>
                <g transform="matrix(0.968496,-0.249029,0.249029,0.968496,-256.279937,208.079837)">
                    <g transform="matrix(83.333333,0,0,83.333333,694.262825,1116.946022)">
                        <path d="M0.385,-0L0.064,-0L0.064,-0.714L0.385,-0.714L0.385,-0.597L0.201,-0.597L0.201,-0.429L0.372,-0.429L0.372,-0.312L0.201,-0.312L0.201,-0.119L0.385,-0.119L0.385,-0Z" style="fill:rgb(46,158,72);fill-rule:nonzero;"/>
                    </g>
                </g>
                <g transform="matrix(0.944518,-0.328459,0.328459,0.944518,-323.539883,300.877539)">
                    <g transform="matrix(83.333333,0,0,83.333333,728.847103,1108.137824)">
                        <path d="M0.064,-0L0.064,-0.714L0.201,-0.714L0.201,-0.119L0.391,-0.119L0.391,-0L0.064,-0Z" style="fill:rgb(46,158,72);fill-rule:nonzero;"/>
                    </g>
                </g>
                <g transform="matrix(0.903559,-0.428464,0.428464,0.903559,-397.02299,431.975727)">
                    <g transform="matrix(83.333333,0,0,83.333333,761.068297,1097.924542)">
                        <path d="M0.33,-0L0.189,-0.527L0.185,-0.527C0.187,-0.505 0.188,-0.485 0.189,-0.465C0.19,-0.446 0.191,-0.428 0.191,-0.412C0.192,-0.396 0.192,-0.381 0.192,-0.368L0.192,-0L0.064,-0L0.064,-0.714L0.253,-0.714L0.385,-0.225L0.388,-0.225L0.52,-0.714L0.708,-0.714L0.708,-0L0.577,-0L0.577,-0.369C0.577,-0.384 0.577,-0.399 0.578,-0.415C0.578,-0.431 0.579,-0.449 0.58,-0.467C0.581,-0.485 0.582,-0.505 0.583,-0.526L0.579,-0.526L0.437,-0L0.33,-0Z" style="fill:rgb(46,158,72);fill-rule:nonzero;"/>
                    </g>
                </g>
                <g transform="matrix(0.847986,-0.530018,0.530018,0.847986,-442.458889,596.595675)">
                    <g transform="matrix(83.333333,0,0,83.333333,818.829423,1069.646525)">
                        <path d="M0.408,-0.209C0.408,-0.166 0.4,-0.128 0.382,-0.095C0.365,-0.062 0.341,-0.037 0.309,-0.018C0.278,0 0.241,0.01 0.198,0.01C0.178,0.01 0.159,0.009 0.141,0.006C0.122,0.004 0.104,-0 0.086,-0.006C0.068,-0.012 0.05,-0.019 0.032,-0.029L0.032,-0.169C0.058,-0.152 0.085,-0.139 0.113,-0.13C0.141,-0.122 0.167,-0.117 0.191,-0.117C0.208,-0.117 0.223,-0.121 0.235,-0.127C0.246,-0.134 0.255,-0.144 0.26,-0.155C0.266,-0.167 0.269,-0.18 0.269,-0.195C0.269,-0.21 0.267,-0.224 0.262,-0.236C0.257,-0.248 0.247,-0.26 0.234,-0.272C0.22,-0.284 0.2,-0.297 0.173,-0.313C0.152,-0.325 0.133,-0.338 0.116,-0.351C0.1,-0.364 0.085,-0.378 0.073,-0.394C0.062,-0.41 0.053,-0.428 0.046,-0.449C0.04,-0.47 0.037,-0.495 0.037,-0.523C0.037,-0.563 0.045,-0.599 0.061,-0.629C0.077,-0.659 0.1,-0.683 0.131,-0.699C0.161,-0.716 0.198,-0.724 0.24,-0.724C0.269,-0.724 0.298,-0.72 0.325,-0.712C0.353,-0.705 0.38,-0.694 0.406,-0.679L0.368,-0.558C0.345,-0.572 0.323,-0.582 0.303,-0.589C0.282,-0.596 0.263,-0.599 0.245,-0.599C0.229,-0.599 0.216,-0.596 0.206,-0.59C0.195,-0.584 0.187,-0.576 0.182,-0.565C0.177,-0.555 0.174,-0.543 0.174,-0.53C0.174,-0.513 0.176,-0.499 0.182,-0.487C0.187,-0.475 0.197,-0.464 0.211,-0.452C0.226,-0.441 0.247,-0.428 0.274,-0.412C0.304,-0.395 0.328,-0.377 0.348,-0.357C0.368,-0.338 0.383,-0.316 0.393,-0.292C0.403,-0.268 0.408,-0.241 0.408,-0.209Z" style="fill:rgb(46,158,72);fill-rule:nonzero;"/>
                    </g>
                </g>
                <g transform="matrix(0.794662,-0.607052,0.607052,0.794662,-463.148622,731.664261)">
                    <g transform="matrix(83.333333,0,0,83.333333,849.954935,1050.447749)">
                        <path d="M0.064,-0.714L0.252,-0.714C0.326,-0.714 0.381,-0.699 0.417,-0.671C0.454,-0.642 0.472,-0.598 0.472,-0.538C0.472,-0.51 0.468,-0.485 0.461,-0.463C0.453,-0.441 0.442,-0.423 0.428,-0.409C0.413,-0.394 0.396,-0.384 0.376,-0.379L0.376,-0.374C0.401,-0.367 0.422,-0.356 0.438,-0.342C0.454,-0.327 0.466,-0.309 0.474,-0.286C0.481,-0.264 0.485,-0.237 0.485,-0.207C0.485,-0.165 0.476,-0.128 0.46,-0.097C0.443,-0.066 0.419,-0.042 0.387,-0.025C0.356,-0.008 0.318,-0 0.274,-0L0.064,-0L0.064,-0.714ZM0.201,-0.425L0.252,-0.425C0.28,-0.425 0.3,-0.433 0.314,-0.449C0.327,-0.465 0.334,-0.488 0.334,-0.519C0.334,-0.546 0.327,-0.567 0.313,-0.581C0.299,-0.595 0.278,-0.602 0.25,-0.602L0.201,-0.602L0.201,-0.425ZM0.201,-0.316L0.201,-0.115L0.263,-0.115C0.291,-0.115 0.311,-0.124 0.325,-0.141C0.338,-0.158 0.345,-0.183 0.345,-0.218C0.345,-0.239 0.342,-0.257 0.335,-0.271C0.328,-0.286 0.318,-0.297 0.305,-0.304C0.293,-0.312 0.277,-0.316 0.258,-0.316L0.201,-0.316Z" style="fill:rgb(46,158,72);fill-rule:nonzero;"/>
                    </g>
                </g>
                <g transform="matrix(0.729122,-0.684384,0.684384,0.729122,-460.93735,883.022291)">
                    <g transform="matrix(83.333333,0,0,83.333333,885.025546,1023.798768)">
                        <path d="M0.502,-0.714L0.502,-0.235C0.502,-0.18 0.493,-0.135 0.477,-0.099C0.46,-0.062 0.435,-0.035 0.402,-0.017C0.369,0.001 0.328,0.01 0.28,0.01C0.209,0.01 0.155,-0.01 0.117,-0.05C0.079,-0.09 0.06,-0.151 0.06,-0.232L0.06,-0.714L0.197,-0.714L0.197,-0.237C0.197,-0.192 0.204,-0.159 0.218,-0.14C0.233,-0.121 0.253,-0.111 0.281,-0.111C0.3,-0.111 0.316,-0.115 0.328,-0.123C0.341,-0.132 0.35,-0.145 0.357,-0.164C0.363,-0.182 0.366,-0.207 0.366,-0.238L0.366,-0.714L0.502,-0.714Z" style="fill:rgb(46,158,72);fill-rule:nonzero;"/>
                    </g>
                </g>
                <g transform="matrix(0.651406,-0.758729,0.758729,0.651406,-432.029913,1043.150622)">
                    <g transform="matrix(83.333333,0,0,83.333333,919.215262,991.740791)">
                        <path d="M0.23,-0.714C0.283,-0.714 0.326,-0.706 0.361,-0.691C0.396,-0.676 0.422,-0.653 0.439,-0.622C0.456,-0.591 0.465,-0.553 0.465,-0.507C0.465,-0.478 0.461,-0.451 0.454,-0.427C0.447,-0.403 0.436,-0.382 0.421,-0.363C0.406,-0.344 0.386,-0.328 0.363,-0.314L0.51,-0L0.359,-0L0.242,-0.28L0.201,-0.28L0.201,-0L0.064,-0L0.064,-0.714L0.23,-0.714ZM0.229,-0.598L0.201,-0.598L0.201,-0.388L0.232,-0.388C0.263,-0.388 0.286,-0.397 0.302,-0.416C0.317,-0.435 0.325,-0.463 0.325,-0.5C0.325,-0.534 0.317,-0.558 0.302,-0.574C0.286,-0.59 0.262,-0.598 0.229,-0.598Z" style="fill:rgb(46,158,72);fill-rule:nonzero;"/>
                    </g>
                </g>
                <g transform="matrix(0.575374,-0.81789,0.81789,0.575374,-382.587385,1182.129891)">
                    <g transform="matrix(83.333333,0,0,83.333333,947.182689,959.524203)">
                        <path d="M0.3,-0.402L0.523,-0.402L0.523,-0.03C0.489,-0.016 0.454,-0.007 0.419,-0C0.383,0.007 0.347,0.01 0.31,0.01C0.251,0.01 0.202,-0.005 0.162,-0.035C0.123,-0.066 0.093,-0.108 0.073,-0.163C0.053,-0.218 0.043,-0.283 0.043,-0.359C0.043,-0.433 0.054,-0.498 0.077,-0.552C0.1,-0.607 0.133,-0.649 0.176,-0.679C0.22,-0.709 0.273,-0.724 0.336,-0.724C0.37,-0.724 0.403,-0.72 0.433,-0.712C0.463,-0.703 0.489,-0.693 0.513,-0.679L0.473,-0.566C0.453,-0.579 0.431,-0.589 0.409,-0.596C0.387,-0.603 0.365,-0.606 0.341,-0.606C0.307,-0.606 0.278,-0.596 0.255,-0.577C0.232,-0.558 0.214,-0.529 0.203,-0.492C0.191,-0.455 0.185,-0.409 0.185,-0.355C0.185,-0.305 0.19,-0.262 0.199,-0.225C0.209,-0.188 0.224,-0.159 0.243,-0.139C0.263,-0.119 0.288,-0.109 0.319,-0.109C0.332,-0.109 0.344,-0.11 0.356,-0.112C0.368,-0.114 0.379,-0.117 0.389,-0.12L0.389,-0.286L0.3,-0.286L0.3,-0.402Z" style="fill:rgb(46,158,72);fill-rule:nonzero;"/>
                    </g>
                </g>
            </g>
            <g transform="matrix(0.859845,0,0,0.865052,-103.61135,-181.6609)">
                <g transform="matrix(0.813666,0.581332,-0.581332,0.813666,773.451617,8.471411)">
                    <g transform="matrix(54.166667,0,0,54.166667,373.511072,1210.759547)">
                        <path d="M0.524,-0L0.455,-0.252C0.452,-0.264 0.448,-0.279 0.444,-0.297C0.439,-0.314 0.435,-0.332 0.43,-0.351C0.426,-0.37 0.421,-0.387 0.418,-0.403C0.414,-0.419 0.411,-0.432 0.409,-0.44L0.405,-0.44C0.403,-0.432 0.401,-0.419 0.397,-0.403C0.394,-0.387 0.39,-0.37 0.385,-0.351C0.38,-0.332 0.376,-0.314 0.372,-0.296C0.367,-0.278 0.363,-0.263 0.36,-0.25L0.288,-0L0.162,-0L0.011,-0.541L0.127,-0.541L0.197,-0.272C0.202,-0.254 0.206,-0.235 0.211,-0.213C0.215,-0.192 0.219,-0.172 0.222,-0.153C0.225,-0.134 0.228,-0.118 0.229,-0.105L0.233,-0.105C0.234,-0.114 0.236,-0.125 0.239,-0.139C0.241,-0.152 0.243,-0.166 0.246,-0.181C0.249,-0.196 0.252,-0.21 0.255,-0.223C0.258,-0.236 0.261,-0.247 0.263,-0.255L0.346,-0.541L0.472,-0.541L0.552,-0.255C0.555,-0.243 0.559,-0.227 0.563,-0.208C0.568,-0.19 0.572,-0.171 0.575,-0.152C0.578,-0.134 0.581,-0.118 0.582,-0.106L0.585,-0.106C0.587,-0.117 0.589,-0.132 0.593,-0.151C0.596,-0.17 0.6,-0.19 0.604,-0.212C0.609,-0.234 0.614,-0.254 0.619,-0.272L0.69,-0.541L0.805,-0.541L0.652,-0L0.524,-0Z" style="fill:rgb(26,26,26);fill-rule:nonzero;"/>
                    </g>
                </g>
                <g transform="matrix(0.858784,0.512338,-0.512338,0.858784,691.321702,-35.195943)">
                    <g transform="matrix(54.166667,0,0,54.166667,409.507084,1236.475169)">
                        <path d="M0.524,-0L0.455,-0.252C0.452,-0.264 0.448,-0.279 0.444,-0.297C0.439,-0.314 0.435,-0.332 0.43,-0.351C0.426,-0.37 0.421,-0.387 0.418,-0.403C0.414,-0.419 0.411,-0.432 0.409,-0.44L0.405,-0.44C0.403,-0.432 0.401,-0.419 0.397,-0.403C0.394,-0.387 0.39,-0.37 0.385,-0.351C0.38,-0.332 0.376,-0.314 0.372,-0.296C0.367,-0.278 0.363,-0.263 0.36,-0.25L0.288,-0L0.162,-0L0.011,-0.541L0.127,-0.541L0.197,-0.272C0.202,-0.254 0.206,-0.235 0.211,-0.213C0.215,-0.192 0.219,-0.172 0.222,-0.153C0.225,-0.134 0.228,-0.118 0.229,-0.105L0.233,-0.105C0.234,-0.114 0.236,-0.125 0.239,-0.139C0.241,-0.152 0.243,-0.166 0.246,-0.181C0.249,-0.196 0.252,-0.21 0.255,-0.223C0.258,-0.236 0.261,-0.247 0.263,-0.255L0.346,-0.541L0.472,-0.541L0.552,-0.255C0.555,-0.243 0.559,-0.227 0.563,-0.208C0.568,-0.19 0.572,-0.171 0.575,-0.152C0.578,-0.134 0.581,-0.118 0.582,-0.106L0.585,-0.106C0.587,-0.117 0.589,-0.132 0.593,-0.151C0.596,-0.17 0.6,-0.19 0.604,-0.212C0.609,-0.234 0.614,-0.254 0.619,-0.272L0.69,-0.541L0.805,-0.541L0.652,-0L0.524,-0Z" style="fill:rgb(26,26,26);fill-rule:nonzero;"/>
                    </g>
                </g>
                <g transform="matrix(0.898105,0.439781,-0.439781,0.898105,599.305045,-68.459419)">
                    <g transform="matrix(54.166667,0,0,54.166667,447.388911,1259.07901)">
                        <path d="M0.524,-0L0.455,-0.252C0.452,-0.264 0.448,-0.279 0.444,-0.297C0.439,-0.314 0.435,-0.332 0.43,-0.351C0.426,-0.37 0.421,-0.387 0.418,-0.403C0.414,-0.419 0.411,-0.432 0.409,-0.44L0.405,-0.44C0.403,-0.432 0.401,-0.419 0.397,-0.403C0.394,-0.387 0.39,-0.37 0.385,-0.351C0.38,-0.332 0.376,-0.314 0.372,-0.296C0.367,-0.278 0.363,-0.263 0.36,-0.25L0.288,-0L0.162,-0L0.011,-0.541L0.127,-0.541L0.197,-0.272C0.202,-0.254 0.206,-0.235 0.211,-0.213C0.215,-0.192 0.219,-0.172 0.222,-0.153C0.225,-0.134 0.228,-0.118 0.229,-0.105L0.233,-0.105C0.234,-0.114 0.236,-0.125 0.239,-0.139C0.241,-0.152 0.243,-0.166 0.246,-0.181C0.249,-0.196 0.252,-0.21 0.255,-0.223C0.258,-0.236 0.261,-0.247 0.263,-0.255L0.346,-0.541L0.472,-0.541L0.552,-0.255C0.555,-0.243 0.559,-0.227 0.563,-0.208C0.568,-0.19 0.572,-0.171 0.575,-0.152C0.578,-0.134 0.581,-0.118 0.582,-0.106L0.585,-0.106C0.587,-0.117 0.589,-0.132 0.593,-0.151C0.596,-0.17 0.6,-0.19 0.604,-0.212C0.609,-0.234 0.614,-0.254 0.619,-0.272L0.69,-0.541L0.805,-0.541L0.652,-0L0.524,-0Z" style="fill:rgb(26,26,26);fill-rule:nonzero;"/>
                    </g>
                </g>
                <g transform="matrix(0.921128,0.38926,-0.38926,0.921128,535.96922,-88.869382)">
                    <g transform="matrix(54.166667,0,0,54.166667,487.284896,1278.160345)">
                        <path d="M0.065,-0.06C0.065,-0.087 0.072,-0.106 0.086,-0.117C0.1,-0.128 0.117,-0.133 0.137,-0.133C0.157,-0.133 0.174,-0.128 0.188,-0.117C0.202,-0.106 0.209,-0.087 0.209,-0.06C0.209,-0.034 0.202,-0.016 0.188,-0.004C0.174,0.008 0.157,0.013 0.137,0.013C0.117,0.013 0.1,0.008 0.086,-0.004C0.072,-0.016 0.065,-0.034 0.065,-0.06Z" style="fill:rgb(26,26,26);fill-rule:nonzero;"/>
                    </g>
                </g>
                <g transform="matrix(0.935657,0.352911,-0.352911,0.935657,485.387583,-94.164117)">
                    <g transform="matrix(54.166667,0,0,54.166667,500.931035,1284.052941)">
                        <path d="M0.445,-0.154C0.445,-0.119 0.437,-0.089 0.419,-0.064C0.402,-0.04 0.377,-0.021 0.344,-0.009C0.311,0.004 0.27,0.01 0.223,0.01C0.185,0.01 0.152,0.007 0.125,0.002C0.098,-0.004 0.072,-0.012 0.048,-0.023L0.048,-0.122C0.074,-0.11 0.103,-0.099 0.135,-0.091C0.167,-0.082 0.197,-0.078 0.226,-0.078C0.264,-0.078 0.291,-0.084 0.307,-0.095C0.324,-0.107 0.333,-0.123 0.333,-0.143C0.333,-0.155 0.329,-0.165 0.323,-0.175C0.316,-0.184 0.303,-0.193 0.285,-0.203C0.267,-0.213 0.241,-0.225 0.206,-0.239C0.172,-0.253 0.143,-0.266 0.119,-0.28C0.096,-0.294 0.078,-0.31 0.066,-0.33C0.054,-0.349 0.048,-0.374 0.048,-0.404C0.048,-0.452 0.067,-0.488 0.105,-0.513C0.143,-0.538 0.193,-0.551 0.256,-0.551C0.289,-0.551 0.32,-0.547 0.35,-0.541C0.379,-0.534 0.408,-0.524 0.437,-0.511L0.4,-0.425C0.376,-0.436 0.351,-0.445 0.327,-0.452C0.302,-0.459 0.277,-0.462 0.252,-0.462C0.222,-0.462 0.2,-0.458 0.184,-0.448C0.169,-0.439 0.161,-0.426 0.161,-0.41C0.161,-0.397 0.165,-0.386 0.172,-0.377C0.18,-0.369 0.193,-0.36 0.211,-0.351C0.23,-0.342 0.255,-0.331 0.288,-0.318C0.32,-0.306 0.348,-0.293 0.372,-0.279C0.395,-0.266 0.413,-0.249 0.426,-0.23C0.439,-0.21 0.445,-0.185 0.445,-0.154Z" style="fill:rgb(26,26,26);fill-rule:nonzero;"/>
                    </g>
                </g>
                <g transform="matrix(0.948628,0.316394,-0.316394,0.948628,436.181822,-99.869045)">
                    <g transform="matrix(54.166667,0,0,54.166667,525.63067,1293.256982)">
                        <path d="M0.197,-0.541L0.197,-0L0.082,-0L0.082,-0.541L0.197,-0.541ZM0.14,-0.748C0.158,-0.748 0.173,-0.743 0.186,-0.733C0.198,-0.724 0.205,-0.708 0.205,-0.685C0.205,-0.662 0.198,-0.646 0.186,-0.636C0.173,-0.626 0.158,-0.621 0.14,-0.621C0.122,-0.621 0.106,-0.626 0.094,-0.636C0.081,-0.646 0.075,-0.662 0.075,-0.685C0.075,-0.708 0.081,-0.724 0.094,-0.733C0.106,-0.743 0.122,-0.748 0.14,-0.748Z" style="fill:rgb(26,26,26);fill-rule:nonzero;"/>
                    </g>
                </g>
                <g transform="matrix(0.960657,0.277737,-0.277737,0.960657,381.790967,-98.885797)">
                    <g transform="matrix(54.166667,0,0,54.166667,539.932429,1298.163701)">
                        <path d="M0.3,0.01C0.249,0.01 0.204,-0 0.167,-0.02C0.13,-0.04 0.101,-0.07 0.081,-0.111C0.06,-0.152 0.05,-0.204 0.05,-0.267C0.05,-0.333 0.061,-0.387 0.083,-0.428C0.106,-0.47 0.136,-0.501 0.175,-0.521C0.215,-0.541 0.26,-0.551 0.31,-0.551C0.343,-0.551 0.372,-0.547 0.398,-0.541C0.424,-0.535 0.446,-0.527 0.465,-0.518L0.43,-0.426C0.411,-0.434 0.39,-0.441 0.37,-0.447C0.349,-0.452 0.329,-0.455 0.309,-0.455C0.278,-0.455 0.252,-0.448 0.231,-0.434C0.21,-0.42 0.194,-0.399 0.184,-0.371C0.173,-0.344 0.168,-0.309 0.168,-0.268C0.168,-0.229 0.173,-0.195 0.184,-0.168C0.194,-0.141 0.21,-0.12 0.23,-0.106C0.251,-0.093 0.276,-0.086 0.306,-0.086C0.336,-0.086 0.362,-0.089 0.386,-0.096C0.409,-0.104 0.431,-0.113 0.452,-0.125L0.452,-0.025C0.432,-0.013 0.41,-0.004 0.386,0.001C0.363,0.007 0.334,0.01 0.3,0.01Z" style="fill:rgb(26,26,26);fill-rule:nonzero;"/>
                    </g>
                </g>
                <g transform="matrix(0.974893,0.222673,-0.222673,0.974893,304.955763,-93.18096)">
                    <g transform="matrix(54.166667,0,0,54.166667,565.690288,1305.740557)">
                        <path d="M0.197,-0.76L0.197,-0.569C0.197,-0.549 0.196,-0.529 0.195,-0.511C0.194,-0.492 0.192,-0.477 0.191,-0.467L0.198,-0.467C0.209,-0.485 0.223,-0.501 0.24,-0.513C0.256,-0.526 0.275,-0.535 0.296,-0.541C0.316,-0.547 0.338,-0.55 0.362,-0.55C0.403,-0.55 0.438,-0.543 0.467,-0.529C0.496,-0.516 0.518,-0.494 0.534,-0.465C0.549,-0.436 0.557,-0.399 0.557,-0.352L0.557,-0L0.442,-0L0.442,-0.331C0.442,-0.373 0.434,-0.404 0.416,-0.425C0.399,-0.446 0.372,-0.457 0.336,-0.457C0.302,-0.457 0.274,-0.45 0.254,-0.435C0.233,-0.421 0.219,-0.399 0.21,-0.371C0.201,-0.343 0.197,-0.309 0.197,-0.268L0.197,-0L0.082,-0L0.082,-0.76L0.197,-0.76Z" style="fill:rgb(26,26,26);fill-rule:nonzero;"/>
                    </g>
                </g>
                <g transform="matrix(0.986775,0.162096,-0.162096,0.986775,220.818281,-79.775273)">
                    <g transform="matrix(54.166667,0,0,54.166667,599.302039,1313.369896)">
                        <path d="M0.297,-0.551C0.345,-0.551 0.387,-0.541 0.421,-0.521C0.456,-0.501 0.482,-0.473 0.501,-0.436C0.519,-0.4 0.529,-0.356 0.529,-0.305L0.529,-0.244L0.168,-0.244C0.169,-0.192 0.183,-0.151 0.21,-0.123C0.237,-0.095 0.275,-0.08 0.323,-0.08C0.358,-0.08 0.389,-0.084 0.416,-0.09C0.444,-0.097 0.472,-0.107 0.501,-0.12L0.501,-0.027C0.474,-0.014 0.447,-0.005 0.419,0.001C0.391,0.007 0.357,0.01 0.318,0.01C0.265,0.01 0.218,-0.001 0.178,-0.021C0.138,-0.042 0.107,-0.073 0.084,-0.114C0.062,-0.155 0.05,-0.205 0.05,-0.266C0.05,-0.327 0.061,-0.379 0.081,-0.421C0.102,-0.463 0.13,-0.495 0.167,-0.517C0.204,-0.54 0.248,-0.551 0.297,-0.551ZM0.297,-0.464C0.261,-0.464 0.232,-0.453 0.21,-0.429C0.187,-0.406 0.174,-0.371 0.17,-0.326L0.416,-0.326C0.416,-0.353 0.411,-0.377 0.403,-0.398C0.394,-0.419 0.381,-0.435 0.364,-0.447C0.347,-0.458 0.324,-0.464 0.297,-0.464Z" style="fill:rgb(26,26,26);fill-rule:nonzero;"/>
                    </g>
                </g>
                <g transform="matrix(0.994104,0.108429,-0.108429,0.994104,146.665168,-60.549354)">
                    <g transform="matrix(54.166667,0,0,54.166667,630.108633,1318.371477)">
                        <path d="M0.356,-0.551C0.365,-0.551 0.375,-0.55 0.386,-0.549C0.396,-0.548 0.406,-0.547 0.413,-0.545L0.403,-0.438C0.396,-0.44 0.387,-0.441 0.378,-0.442C0.368,-0.443 0.359,-0.444 0.351,-0.444C0.33,-0.444 0.311,-0.44 0.292,-0.434C0.274,-0.427 0.257,-0.417 0.243,-0.403C0.229,-0.39 0.218,-0.373 0.209,-0.353C0.201,-0.333 0.197,-0.309 0.197,-0.282L0.197,-0L0.082,-0L0.082,-0.541L0.172,-0.541L0.187,-0.445L0.193,-0.445C0.204,-0.465 0.217,-0.482 0.233,-0.498C0.249,-0.514 0.267,-0.527 0.288,-0.536C0.308,-0.546 0.331,-0.551 0.356,-0.551Z" style="fill:rgb(26,26,26);fill-rule:nonzero;"/>
                    </g>
                </g>
                <g transform="matrix(0.998139,0.060972,-0.060972,0.998139,81.761309,-37.374528)">
                    <g transform="matrix(54.166667,0,0,54.166667,653.292246,1321.037296)">
                        <path d="M0.297,-0.551C0.345,-0.551 0.387,-0.541 0.421,-0.521C0.456,-0.501 0.482,-0.473 0.501,-0.436C0.519,-0.4 0.529,-0.356 0.529,-0.305L0.529,-0.244L0.168,-0.244C0.169,-0.192 0.183,-0.151 0.21,-0.123C0.237,-0.095 0.275,-0.08 0.323,-0.08C0.358,-0.08 0.389,-0.084 0.416,-0.09C0.444,-0.097 0.472,-0.107 0.501,-0.12L0.501,-0.027C0.474,-0.014 0.447,-0.005 0.419,0.001C0.391,0.007 0.357,0.01 0.318,0.01C0.265,0.01 0.218,-0.001 0.178,-0.021C0.138,-0.042 0.107,-0.073 0.084,-0.114C0.062,-0.155 0.05,-0.205 0.05,-0.266C0.05,-0.327 0.061,-0.379 0.081,-0.421C0.102,-0.463 0.13,-0.495 0.167,-0.517C0.204,-0.54 0.248,-0.551 0.297,-0.551ZM0.297,-0.464C0.261,-0.464 0.232,-0.453 0.21,-0.429C0.187,-0.406 0.174,-0.371 0.17,-0.326L0.416,-0.326C0.416,-0.353 0.411,-0.377 0.403,-0.398C0.394,-0.419 0.381,-0.435 0.364,-0.447C0.347,-0.458 0.324,-0.464 0.297,-0.464Z" style="fill:rgb(26,26,26);fill-rule:nonzero;"/>
                    </g>
                </g>
                <g transform="matrix(0.999868,0.016251,-0.016251,0.999868,21.586858,-10.947922)">
                    <g transform="matrix(54.166667,0,0,54.166667,684.429732,1322.786396)">
                        <rect x="0.035" y="-0.317" width="0.252" height="0.097" style="fill:rgb(26,26,26);fill-rule:nonzero;"/>
                    </g>
                </g>
                <g transform="matrix(0.999703,-0.024373,0.024373,0.999703,-32.041336,17.500754)">
                    <g transform="matrix(54.166667,0,0,54.166667,701.902969,1323.164196)">
                        <path d="M0.445,-0.154C0.445,-0.119 0.437,-0.089 0.419,-0.064C0.402,-0.04 0.377,-0.021 0.344,-0.009C0.311,0.004 0.27,0.01 0.223,0.01C0.185,0.01 0.152,0.007 0.125,0.002C0.098,-0.004 0.072,-0.012 0.048,-0.023L0.048,-0.122C0.074,-0.11 0.103,-0.099 0.135,-0.091C0.167,-0.082 0.197,-0.078 0.226,-0.078C0.264,-0.078 0.291,-0.084 0.307,-0.095C0.324,-0.107 0.333,-0.123 0.333,-0.143C0.333,-0.155 0.329,-0.165 0.323,-0.175C0.316,-0.184 0.303,-0.193 0.285,-0.203C0.267,-0.213 0.241,-0.225 0.206,-0.239C0.172,-0.253 0.143,-0.266 0.119,-0.28C0.096,-0.294 0.078,-0.31 0.066,-0.33C0.054,-0.349 0.048,-0.374 0.048,-0.404C0.048,-0.452 0.067,-0.488 0.105,-0.513C0.143,-0.538 0.193,-0.551 0.256,-0.551C0.289,-0.551 0.32,-0.547 0.35,-0.541C0.379,-0.534 0.408,-0.524 0.437,-0.511L0.4,-0.425C0.376,-0.436 0.351,-0.445 0.327,-0.452C0.302,-0.459 0.277,-0.462 0.252,-0.462C0.222,-0.462 0.2,-0.458 0.184,-0.448C0.169,-0.439 0.161,-0.426 0.161,-0.41C0.161,-0.397 0.165,-0.386 0.172,-0.377C0.18,-0.369 0.193,-0.36 0.211,-0.351C0.23,-0.342 0.255,-0.331 0.288,-0.318C0.32,-0.306 0.348,-0.293 0.372,-0.279C0.395,-0.266 0.413,-0.249 0.426,-0.23C0.439,-0.21 0.445,-0.185 0.445,-0.154Z" style="fill:rgb(26,26,26);fill-rule:nonzero;"/>
                    </g>
                </g>
                <g transform="matrix(0.997244,-0.074196,0.074196,0.997244,-96.119927,57.680369)">
                    <g transform="matrix(54.166667,0,0,54.166667,728.276344,1322.545311)">
                        <path d="M0.3,0.01C0.249,0.01 0.204,-0 0.167,-0.02C0.13,-0.04 0.101,-0.07 0.081,-0.111C0.06,-0.152 0.05,-0.204 0.05,-0.267C0.05,-0.333 0.061,-0.387 0.083,-0.428C0.106,-0.47 0.136,-0.501 0.175,-0.521C0.215,-0.541 0.26,-0.551 0.31,-0.551C0.343,-0.551 0.372,-0.547 0.398,-0.541C0.424,-0.535 0.446,-0.527 0.465,-0.518L0.43,-0.426C0.411,-0.434 0.39,-0.441 0.37,-0.447C0.349,-0.452 0.329,-0.455 0.309,-0.455C0.278,-0.455 0.252,-0.448 0.231,-0.434C0.21,-0.42 0.194,-0.399 0.184,-0.371C0.173,-0.344 0.168,-0.309 0.168,-0.268C0.168,-0.229 0.173,-0.195 0.184,-0.168C0.194,-0.141 0.21,-0.12 0.23,-0.106C0.251,-0.093 0.276,-0.086 0.306,-0.086C0.336,-0.086 0.362,-0.089 0.386,-0.096C0.409,-0.104 0.431,-0.113 0.452,-0.125L0.452,-0.025C0.432,-0.013 0.41,-0.004 0.386,0.001C0.363,0.007 0.334,0.01 0.3,0.01Z" style="fill:rgb(26,26,26);fill-rule:nonzero;"/>
                    </g>
                </g>
                <g transform="matrix(0.991467,-0.13036,0.13036,0.991467,-165.718987,109.71053)">
                    <g transform="matrix(54.166667,0,0,54.166667,755.144266,1320.669352)">
                        <path d="M0.197,-0.76L0.197,-0.569C0.197,-0.549 0.196,-0.529 0.195,-0.511C0.194,-0.492 0.192,-0.477 0.191,-0.467L0.198,-0.467C0.209,-0.485 0.223,-0.501 0.24,-0.513C0.256,-0.526 0.275,-0.535 0.296,-0.541C0.316,-0.547 0.338,-0.55 0.362,-0.55C0.403,-0.55 0.438,-0.543 0.467,-0.529C0.496,-0.516 0.518,-0.494 0.534,-0.465C0.549,-0.436 0.557,-0.399 0.557,-0.352L0.557,-0L0.442,-0L0.442,-0.331C0.442,-0.373 0.434,-0.404 0.416,-0.425C0.399,-0.446 0.372,-0.457 0.336,-0.457C0.302,-0.457 0.274,-0.45 0.254,-0.435C0.233,-0.421 0.219,-0.399 0.21,-0.371C0.201,-0.343 0.197,-0.309 0.197,-0.268L0.197,-0L0.082,-0L0.082,-0.76L0.197,-0.76Z" style="fill:rgb(26,26,26);fill-rule:nonzero;"/>
                    </g>
                </g>
                <g transform="matrix(0.981085,-0.193579,0.193579,0.981085,-239.857856,177.67434)">
                    <g transform="matrix(54.166667,0,0,54.166667,789.229723,1316.188541)">
                        <path d="M0.553,-0.541L0.553,-0L0.463,-0L0.447,-0.073L0.441,-0.073C0.43,-0.054 0.415,-0.039 0.397,-0.026C0.38,-0.014 0.36,-0.005 0.339,0.001C0.317,0.007 0.295,0.01 0.271,0.01C0.23,0.01 0.195,0.003 0.167,-0.011C0.138,-0.025 0.116,-0.046 0.1,-0.075C0.085,-0.104 0.077,-0.141 0.077,-0.187L0.077,-0.541L0.193,-0.541L0.193,-0.209C0.193,-0.167 0.201,-0.136 0.219,-0.115C0.236,-0.094 0.262,-0.083 0.298,-0.083C0.333,-0.083 0.361,-0.09 0.381,-0.105C0.402,-0.119 0.416,-0.14 0.425,-0.168C0.434,-0.196 0.438,-0.231 0.438,-0.271L0.438,-0.541L0.553,-0.541Z" style="fill:rgb(26,26,26);fill-rule:nonzero;"/>
                    </g>
                </g>
                <g transform="matrix(0.970924,-0.239388,0.239388,0.970924,-289.499614,235.082911)">
                    <g transform="matrix(54.166667,0,0,54.166667,822.989939,1309.292405)">
                        <rect x="0.082" y="-0.76" width="0.115" height="0.76" style="fill:rgb(26,26,26);fill-rule:nonzero;"/>
                    </g>
                </g>
                <g transform="matrix(0.956061,-0.293169,0.293169,0.956061,-346.090301,302.988882)">
                    <g transform="matrix(54.166667,0,0,54.166667,837.744139,1306.072679)">
                        <path d="M0.524,-0L0.455,-0.252C0.452,-0.264 0.448,-0.279 0.444,-0.297C0.439,-0.314 0.435,-0.332 0.43,-0.351C0.426,-0.37 0.421,-0.387 0.418,-0.403C0.414,-0.419 0.411,-0.432 0.409,-0.44L0.405,-0.44C0.403,-0.432 0.401,-0.419 0.397,-0.403C0.394,-0.387 0.39,-0.37 0.385,-0.351C0.38,-0.332 0.376,-0.314 0.372,-0.296C0.367,-0.278 0.363,-0.263 0.36,-0.25L0.288,-0L0.162,-0L0.011,-0.541L0.127,-0.541L0.197,-0.272C0.202,-0.254 0.206,-0.235 0.211,-0.213C0.215,-0.192 0.219,-0.172 0.222,-0.153C0.225,-0.134 0.228,-0.118 0.229,-0.105L0.233,-0.105C0.234,-0.114 0.236,-0.125 0.239,-0.139C0.241,-0.152 0.243,-0.166 0.246,-0.181C0.249,-0.196 0.252,-0.21 0.255,-0.223C0.258,-0.236 0.261,-0.247 0.263,-0.255L0.346,-0.541L0.472,-0.541L0.552,-0.255C0.555,-0.243 0.559,-0.227 0.563,-0.208C0.568,-0.19 0.572,-0.171 0.575,-0.152C0.578,-0.134 0.581,-0.118 0.582,-0.106L0.585,-0.106C0.587,-0.117 0.589,-0.132 0.593,-0.151C0.596,-0.17 0.6,-0.19 0.604,-0.212C0.609,-0.234 0.614,-0.254 0.619,-0.272L0.69,-0.541L0.805,-0.541L0.652,-0L0.524,-0Z" style="fill:rgb(26,26,26);fill-rule:nonzero;"/>
                    </g>
                </g>
                <g transform="matrix(0.932777,-0.360455,0.360455,0.932777,-406.875186,404.09394)">
                    <g transform="matrix(54.166667,0,0,54.166667,879.948969,1292.890124)">
                        <path d="M0.297,-0.551C0.345,-0.551 0.387,-0.541 0.421,-0.521C0.456,-0.501 0.482,-0.473 0.501,-0.436C0.519,-0.4 0.529,-0.356 0.529,-0.305L0.529,-0.244L0.168,-0.244C0.169,-0.192 0.183,-0.151 0.21,-0.123C0.237,-0.095 0.275,-0.08 0.323,-0.08C0.358,-0.08 0.389,-0.084 0.416,-0.09C0.444,-0.097 0.472,-0.107 0.501,-0.12L0.501,-0.027C0.474,-0.014 0.447,-0.005 0.419,0.001C0.391,0.007 0.357,0.01 0.318,0.01C0.265,0.01 0.218,-0.001 0.178,-0.021C0.138,-0.042 0.107,-0.073 0.084,-0.114C0.062,-0.155 0.05,-0.205 0.05,-0.266C0.05,-0.327 0.061,-0.379 0.081,-0.421C0.102,-0.463 0.13,-0.495 0.167,-0.517C0.204,-0.54 0.248,-0.551 0.297,-0.551ZM0.297,-0.464C0.261,-0.464 0.232,-0.453 0.21,-0.429C0.187,-0.406 0.174,-0.371 0.17,-0.326L0.416,-0.326C0.416,-0.353 0.411,-0.377 0.403,-0.398C0.394,-0.419 0.381,-0.435 0.364,-0.447C0.347,-0.458 0.324,-0.464 0.297,-0.464Z" style="fill:rgb(26,26,26);fill-rule:nonzero;"/>
                    </g>
                </g>
                <g transform="matrix(0.910699,-0.413071,0.413071,0.910699,-448.220442,489.954493)">
                    <g transform="matrix(54.166667,0,0,54.166667,909.055222,1281.620288)">
                        <path d="M0.236,0.24C0.163,0.24 0.107,0.227 0.068,0.201C0.029,0.174 0.009,0.137 0.009,0.09C0.009,0.057 0.019,0.029 0.04,0.006C0.061,-0.017 0.091,-0.033 0.13,-0.042C0.115,-0.048 0.103,-0.058 0.092,-0.072C0.081,-0.086 0.076,-0.102 0.076,-0.118C0.076,-0.139 0.082,-0.156 0.093,-0.17C0.105,-0.184 0.122,-0.198 0.144,-0.212C0.116,-0.224 0.093,-0.243 0.076,-0.271C0.059,-0.298 0.051,-0.33 0.051,-0.366C0.051,-0.406 0.059,-0.439 0.076,-0.466C0.092,-0.494 0.116,-0.515 0.148,-0.529C0.18,-0.544 0.219,-0.551 0.264,-0.551C0.274,-0.551 0.285,-0.55 0.296,-0.549C0.307,-0.548 0.318,-0.547 0.328,-0.546C0.338,-0.544 0.346,-0.542 0.351,-0.541L0.538,-0.541L0.538,-0.477L0.446,-0.46C0.455,-0.448 0.462,-0.434 0.467,-0.418C0.472,-0.402 0.475,-0.385 0.475,-0.366C0.475,-0.31 0.456,-0.266 0.417,-0.234C0.379,-0.202 0.325,-0.186 0.258,-0.186C0.241,-0.187 0.226,-0.188 0.21,-0.19C0.198,-0.183 0.19,-0.175 0.183,-0.166C0.177,-0.157 0.174,-0.148 0.174,-0.137C0.174,-0.128 0.177,-0.121 0.184,-0.116C0.19,-0.11 0.199,-0.106 0.211,-0.104C0.223,-0.101 0.238,-0.1 0.256,-0.1L0.349,-0.1C0.408,-0.1 0.453,-0.087 0.485,-0.062C0.516,-0.037 0.531,-0 0.531,0.048C0.531,0.109 0.506,0.157 0.455,0.19C0.405,0.224 0.332,0.24 0.236,0.24ZM0.241,0.16C0.281,0.16 0.314,0.156 0.342,0.148C0.369,0.14 0.39,0.129 0.404,0.115C0.418,0.1 0.425,0.083 0.425,0.063C0.425,0.045 0.42,0.032 0.411,0.022C0.403,0.013 0.389,0.007 0.372,0.003C0.354,-0 0.333,-0.002 0.306,-0.002L0.221,-0.002C0.2,-0.002 0.182,0.001 0.165,0.008C0.149,0.014 0.137,0.024 0.128,0.037C0.119,0.049 0.114,0.065 0.114,0.083C0.114,0.107 0.125,0.126 0.147,0.14C0.169,0.153 0.2,0.16 0.241,0.16ZM0.263,-0.261C0.297,-0.261 0.321,-0.27 0.338,-0.289C0.354,-0.307 0.362,-0.333 0.362,-0.366C0.362,-0.403 0.354,-0.43 0.337,-0.448C0.32,-0.467 0.296,-0.476 0.263,-0.476C0.23,-0.476 0.206,-0.467 0.189,-0.448C0.172,-0.429 0.164,-0.402 0.164,-0.366C0.164,-0.333 0.172,-0.307 0.189,-0.289C0.206,-0.27 0.231,-0.261 0.263,-0.261Z" style="fill:rgb(26,26,26);fill-rule:nonzero;"/>
                    </g>
                </g>
                <g transform="matrix(0.885304,-0.465012,0.465012,0.885304,-482.822376,580.994063)">
                    <g transform="matrix(54.166667,0,0,54.166667,936.355163,1269.253932)">
                        <path d="M0.297,-0.551C0.345,-0.551 0.387,-0.541 0.421,-0.521C0.456,-0.501 0.482,-0.473 0.501,-0.436C0.519,-0.4 0.529,-0.356 0.529,-0.305L0.529,-0.244L0.168,-0.244C0.169,-0.192 0.183,-0.151 0.21,-0.123C0.237,-0.095 0.275,-0.08 0.323,-0.08C0.358,-0.08 0.389,-0.084 0.416,-0.09C0.444,-0.097 0.472,-0.107 0.501,-0.12L0.501,-0.027C0.474,-0.014 0.447,-0.005 0.419,0.001C0.391,0.007 0.357,0.01 0.318,0.01C0.265,0.01 0.218,-0.001 0.178,-0.021C0.138,-0.042 0.107,-0.073 0.084,-0.114C0.062,-0.155 0.05,-0.205 0.05,-0.266C0.05,-0.327 0.061,-0.379 0.081,-0.421C0.102,-0.463 0.13,-0.495 0.167,-0.517C0.204,-0.54 0.248,-0.551 0.297,-0.551ZM0.297,-0.464C0.261,-0.464 0.232,-0.453 0.21,-0.429C0.187,-0.406 0.174,-0.371 0.17,-0.326L0.416,-0.326C0.416,-0.353 0.411,-0.377 0.403,-0.398C0.394,-0.419 0.381,-0.435 0.364,-0.447C0.347,-0.458 0.324,-0.464 0.297,-0.464Z" style="fill:rgb(26,26,26);fill-rule:nonzero;"/>
                    </g>
                </g>
                <g transform="matrix(0.864528,-0.502585,0.502585,0.864528,-499.95796,654.402509)">
                    <g transform="matrix(54.166667,0,0,54.166667,963.895801,1254.591281)">
                        <path d="M0.065,-0.06C0.065,-0.087 0.072,-0.106 0.086,-0.117C0.1,-0.128 0.117,-0.133 0.137,-0.133C0.157,-0.133 0.174,-0.128 0.188,-0.117C0.202,-0.106 0.209,-0.087 0.209,-0.06C0.209,-0.034 0.202,-0.016 0.188,-0.004C0.174,0.008 0.157,0.013 0.137,0.013C0.117,0.013 0.1,0.008 0.086,-0.004C0.072,-0.016 0.065,-0.034 0.065,-0.06Z" style="fill:rgb(26,26,26);fill-rule:nonzero;"/>
                    </g>
                </g>
                <g transform="matrix(0.841749,-0.539869,0.539869,0.841749,-518.801589,724.73359)">
                    <g transform="matrix(54.166667,0,0,54.166667,976.802906,1247.305003)">
                        <path d="M0.263,0.01C0.199,0.01 0.148,-0.014 0.109,-0.061C0.07,-0.108 0.05,-0.177 0.05,-0.269C0.05,-0.362 0.07,-0.432 0.11,-0.479C0.149,-0.527 0.201,-0.551 0.266,-0.551C0.293,-0.551 0.317,-0.547 0.338,-0.54C0.358,-0.532 0.376,-0.522 0.391,-0.51C0.406,-0.498 0.418,-0.484 0.428,-0.469L0.434,-0.469C0.432,-0.479 0.43,-0.493 0.428,-0.512C0.426,-0.531 0.425,-0.549 0.425,-0.565L0.425,-0.76L0.541,-0.76L0.541,-0L0.451,-0L0.43,-0.073L0.425,-0.073C0.416,-0.058 0.403,-0.044 0.388,-0.031C0.374,-0.019 0.356,-0.009 0.336,-0.001C0.315,0.006 0.291,0.01 0.263,0.01ZM0.296,-0.083C0.345,-0.083 0.38,-0.097 0.4,-0.126C0.42,-0.154 0.43,-0.197 0.431,-0.253L0.431,-0.269C0.431,-0.329 0.421,-0.376 0.402,-0.408C0.382,-0.44 0.347,-0.456 0.295,-0.456C0.253,-0.456 0.222,-0.44 0.2,-0.406C0.179,-0.373 0.168,-0.327 0.168,-0.267C0.168,-0.207 0.179,-0.162 0.2,-0.13C0.222,-0.099 0.254,-0.083 0.296,-0.083Z" style="fill:rgb(26,26,26);fill-rule:nonzero;"/>
                    </g>
                </g>
                <g transform="matrix(0.806535,-0.591187,0.591187,0.806535,-532.123787,832.018594)">
                    <g transform="matrix(54.166667,0,0,54.166667,1005.169386,1229.03488)">
                        <path d="M0.297,-0.551C0.345,-0.551 0.387,-0.541 0.421,-0.521C0.456,-0.501 0.482,-0.473 0.501,-0.436C0.519,-0.4 0.529,-0.356 0.529,-0.305L0.529,-0.244L0.168,-0.244C0.169,-0.192 0.183,-0.151 0.21,-0.123C0.237,-0.095 0.275,-0.08 0.323,-0.08C0.358,-0.08 0.389,-0.084 0.416,-0.09C0.444,-0.097 0.472,-0.107 0.501,-0.12L0.501,-0.027C0.474,-0.014 0.447,-0.005 0.419,0.001C0.391,0.007 0.357,0.01 0.318,0.01C0.265,0.01 0.218,-0.001 0.178,-0.021C0.138,-0.042 0.107,-0.073 0.084,-0.114C0.062,-0.155 0.05,-0.205 0.05,-0.266C0.05,-0.327 0.061,-0.379 0.081,-0.421C0.102,-0.463 0.13,-0.495 0.167,-0.517C0.204,-0.54 0.248,-0.551 0.297,-0.551ZM0.297,-0.464C0.261,-0.464 0.232,-0.453 0.21,-0.429C0.187,-0.406 0.174,-0.371 0.17,-0.326L0.416,-0.326C0.416,-0.353 0.411,-0.377 0.403,-0.398C0.394,-0.419 0.381,-0.435 0.364,-0.447C0.347,-0.458 0.324,-0.464 0.297,-0.464Z" style="fill:rgb(26,26,26);fill-rule:nonzero;"/>
                    </g>
                </g>
            </g>
            <g transform="matrix(1.182729,0,0,1.189891,327.531711,-274.994618)">
                <path d="M149,587L149,805" style="fill:none;stroke:rgb(26,26,26);stroke-width:9.09px;stroke-linejoin:miter;"/>
                <g transform="matrix(0.418948,0,0,0.418948,46,408.087589)">
                    <path d="M249.543,0.293C255.074,0.293 260.609,2.41 264.832,6.637C266.215,8.02 267.367,9.551 268.297,11.172L279.523,30.465L279.578,30.465L495.422,405.18C495.465,405.25 495.496,405.32 495.535,405.395C496.633,407.16 497.492,409.113 498.059,411.227C501.148,422.777 494.305,434.648 482.77,437.742C480.867,438.258 478.953,438.488 477.074,438.48L21.914,438.48C9.973,438.48 0.297,428.789 0.297,416.828C0.297,412.918 1.336,409.246 3.152,406.078C3.168,406.055 3.18,406.031 3.191,406.004L227.332,16.266C230.18,11.352 231.496,9.402 234.258,6.637C238.48,2.41 244.012,0.293 249.543,0.293Z" style="fill:rgb(254,254,254);fill-rule:nonzero;"/>
                    <path d="M249.543,5.719C254.789,5.68 260.555,8.367 263.375,13.395L491.145,408.648C492.461,411.34 493.012,413.68 493.027,416.355C493.027,421.148 490.91,425.695 487.25,428.777C484.023,431.281 480.965,432.582 476.852,432.582L21.812,432.582C19.035,432.609 16.254,431.941 13.727,430.273C8.977,427.398 6.066,422.246 6.062,416.684C6.195,413.809 6.902,410.781 8.18,408.648L235.82,13.328C235.84,13.293 235.863,13.258 235.887,13.227C235.91,13.191 235.93,13.156 235.953,13.117C236.762,11.824 237.777,10.68 238.93,9.699C241.574,7.406 244.883,6.031 248.375,5.781C248.766,5.746 249.156,5.723 249.543,5.719ZM476.828,432.582L477.973,432.582L476.828,432.582ZM249.781,84.059L76.203,385.379L423.602,385.379L249.781,84.059Z" style="fill:rgb(216,44,32);fill-rule:nonzero;"/>
                    <g id="path5540" transform="matrix(2.794413,0,0,-2.794413,-64.979011,1327.287402)">
                        <path d="M128.047,394.5C128.047,391.41 125.543,388.906 122.453,388.906C119.367,388.906 116.863,391.41 116.863,394.5C116.863,397.586 119.367,400.09 122.453,400.09C125.543,400.09 128.047,397.586 128.047,394.5Z" style="fill:rgb(26,26,26);fill-rule:nonzero;"/>
                    </g>
                    <g id="path5542" transform="matrix(2.794413,0,0,-2.794413,-64.979011,1327.287402)">
                        <path d="M91.176,342.66L90.098,367.242L83.262,361.727C81.766,361.844 80.188,361.848 79.379,362.906L90.059,373.34C92.48,372.66 94.773,372.86 96.934,373.961L104.609,372.399L108.324,364.727C107.176,364.508 106.563,363.434 104.008,365.445L102.09,369.281L98.973,369.403L101.73,358.367L108.926,357.531C110.84,357.297 110.961,355.582 111.445,354.172L99.813,354.051L97.773,356.93L94.414,355.969L94.535,344.938C93.531,343.375 92.355,343.004 91.176,342.66Z" style="fill:rgb(26,26,26);"/>
                    </g>
                    <g id="path5544" transform="matrix(2.794413,0,0,-2.794413,-64.979011,1327.287402)">
                        <path d="M101.863,377.332C103.371,377.801 118.637,387.227 118.637,387.227C122.199,385.231 125.199,386.692 128.152,388.449L137.668,385.434L142.66,375.637C140.703,374.602 138.785,374.863 136.914,376.578L134.371,381.664L129.094,383.457L130.414,371.207L134.652,360.938L144.168,356.789C146.535,354.133 145.648,352.809 145.395,351.043L131.355,356.695C130.621,356.836 130.348,357.668 129.941,358.297L125.512,368.664L120.801,345.672L115.527,342.848L120.047,369.039L118.824,381.477L107.047,374.977C104.004,374.504 102.906,375.891 101.863,377.332Z" style="fill:rgb(26,26,26);"/>
                    </g>
                    <g id="path5546" transform="matrix(2.794413,0,0,-2.794413,-64.979011,1327.287402)">
                        <path d="M97.828,379.856C97.828,377.137 95.625,374.93 92.902,374.93C90.184,374.93 87.977,377.137 87.977,379.856C87.977,382.574 90.184,384.781 92.902,384.781C95.625,384.781 97.828,382.574 97.828,379.856Z" style="fill:rgb(26,26,26);fill-rule:nonzero;"/>
                    </g>
                </g>
                <g id="uuid-c2461cbb-b147-47b0-8eb9-6cb622eb3e95" transform="matrix(0.163333,0,0,0.163333,52.547831,562.999918)">
                    <path id="uuid-aa6dc451-832c-4e1c-b279-966666bd7956" d="M1200,356.354L1200,843.647C1200,890.558 1161.914,928.644 1115.003,928.644L84.997,928.644C38.086,928.644 0,890.558 0,843.647L0,356.354C0,309.443 38.086,271.357 84.997,271.357L1115.003,271.357C1161.914,271.357 1200,309.443 1200,356.354Z" style="fill:white;"/>
                    <path id="uuid-5edbfe13-84ee-41f0-ba28-b1903dc7c28a" d="M1122.613,288.442L77.387,288.442C44.083,288.442 17.086,315.44 17.086,348.744L17.086,851.257C17.086,884.561 44.084,911.559 77.387,911.559L1122.613,911.559C1155.916,911.559 1182.914,884.561 1182.914,851.258L1182.914,348.745C1182.914,315.441 1155.916,288.443 1122.613,288.443L1122.613,288.442ZM1152.764,851.256C1152.764,867.908 1139.265,881.407 1122.613,881.407L77.387,881.407C60.735,881.407 47.236,867.908 47.236,851.256L47.236,348.743C47.236,332.091 60.735,318.592 77.387,318.592L1122.613,318.592C1139.265,318.592 1152.764,332.091 1152.764,348.743L1152.764,851.256Z"/>
                    <path id="uuid-9c75ed6c-c92d-41f7-998c-69c9fe68aa26" d="M167.151,677.853L187.752,653.53C204.002,667.293 224.606,674.846 245.901,674.846C253.257,674.846 260.586,673.944 267.723,672.159C280.243,669.029 289.027,657.78 289.027,644.874C289.027,630.768 278.578,618.844 264.595,616.992L230.524,612.479C200.693,608.528 178.403,583.09 178.403,552.999C178.403,522.654 201.059,497.086 231.183,493.435C236.067,492.843 240.983,492.546 245.902,492.546C270.678,492.546 294.871,500.069 315.277,514.121L297.2,540.375C282.111,529.985 264.223,524.422 245.902,524.422C242.264,524.422 238.629,524.641 235.018,525.08C220.897,526.792 210.277,538.776 210.277,553C210.277,567.106 220.726,579.03 234.709,580.882L268.78,585.395C298.612,589.346 320.902,614.784 320.902,644.876C320.902,672.408 302.164,696.407 275.454,703.084C265.789,705.501 255.864,706.723 245.902,706.723C217.063,706.723 189.159,696.494 167.152,677.854L167.151,677.853ZM470.329,682.375C457.505,697.817 438.474,706.75 418.401,706.75C381.121,706.75 350.901,676.529 350.901,639.25L350.901,620.5C350.901,583.22 381.122,553 418.401,553C438.473,553 457.505,561.933 470.329,577.375L447.25,596.542C440.125,587.963 429.552,583 418.401,583C397.69,583 380.901,599.79 380.901,620.501L380.901,639.251C380.901,659.962 397.69,676.752 418.401,676.752C429.552,676.752 440.125,671.788 447.25,663.21L470.329,682.377L470.329,682.375ZM500.329,704.875L500.329,494.876L530.329,494.876L530.329,571.806C539.94,559.912 554.412,553.001 569.703,553.001C597.663,553.001 620.328,575.666 620.328,603.626L620.328,704.876L590.328,704.876L590.328,613.002C590.328,596.433 576.897,583.002 560.328,583.002C543.759,583.002 530.328,596.434 530.328,613.002L530.328,704.876L500.328,704.876L500.329,704.875ZM781.58,704.875L751.579,704.875L751.579,687.945C741.968,699.839 727.495,706.75 712.205,706.75C684.245,706.75 661.58,684.085 661.58,656.125L661.58,554.875L691.58,554.875L691.58,646.75C691.58,663.319 705.012,676.75 721.58,676.75C738.148,676.75 751.58,663.318 751.58,646.75L751.58,554.875L781.58,554.875L781.58,704.875ZM879.079,704.875L860.329,704.875C841.69,704.875 826.579,689.765 826.579,671.125L826.579,494.875L856.579,494.875L856.579,667.375C856.579,672.553 860.776,676.75 865.954,676.75L879.079,676.75L879.079,704.875ZM1032.829,641.126L939.079,641.126L939.079,644.876C939.079,657.91 947.014,669.631 959.115,674.471C964.073,676.454 969.363,677.473 974.703,677.473C986.947,677.473 998.579,672.128 1006.553,662.837L1029.318,682.376C1015.645,698.307 995.697,707.473 974.703,707.473C965.547,707.473 956.475,705.725 947.974,702.325C924.482,692.928 909.079,670.176 909.079,644.875L909.079,614.875C909.079,580.703 936.781,553 970.954,553C1005.127,553 1032.829,580.702 1032.829,614.875L1032.829,641.126ZM939.079,614.876L1002.828,614.876C1002.828,597.272 988.557,583.001 970.954,583.001C953.351,583.001 939.079,597.272 939.079,614.876Z" style="fill-rule:nonzero;"/>
                </g>
            </g>
        </g>
    </g>
</svg>
